<svg width="214" height="204" viewBox="0 0 214 204" fill="none" xmlns="http://www.w3.org/2000/svg">
<path d="M60.4384 57.3703L39.915 51.4602C39.1185 51.2309 38.2777 51.6604 38.0371 52.4197L34.3867 63.939C34.1461 64.6983 34.5968 65.4998 35.3933 65.7291L55.9167 71.6392C56.7132 71.8686 57.554 71.439 57.7946 70.6797L61.445 59.1604C61.6856 58.4011 61.2349 57.5997 60.4384 57.3703Z" stroke="#263238" stroke-width="1.00285" stroke-miterlimit="10"/>
<path d="M37.313 54.1987L60.6433 60.9389" stroke="#263238" stroke-miterlimit="10"/>
<path d="M36.6025 56.4302L59.9371 63.1703" stroke="#263238" stroke-miterlimit="10"/>
<path d="M52.8366 67.3443C52.7772 67.5321 52.7584 67.7294 52.7812 67.9244C52.804 68.1193 52.868 68.3078 52.9693 68.4786C52.6195 68.6432 52.2172 68.6753 51.8436 68.5683C51.6057 68.4998 51.3891 68.3767 51.2127 68.2098C51.0363 68.0429 50.9055 67.8373 50.8319 67.611C50.7582 67.3848 50.7439 67.1447 50.7902 66.9119C50.8365 66.6792 50.942 66.4608 51.0975 66.2759C51.2529 66.0911 51.4535 65.9454 51.6818 65.8516C51.91 65.7579 52.1589 65.7189 52.4066 65.7382C52.6543 65.7575 52.8933 65.8344 53.1026 65.9622C53.3118 66.09 53.485 66.2647 53.607 66.4712C53.424 66.5604 53.2615 66.6836 53.1292 66.8335C52.9969 66.9835 52.8974 67.1572 52.8366 67.3443Z" stroke="#263238" stroke-miterlimit="10"/>
<path d="M55.7427 68.1849C55.6551 68.459 55.4842 68.7021 55.2517 68.8836C55.0191 69.0651 54.7354 69.1767 54.4362 69.2045C54.1371 69.2322 53.8361 69.1747 53.5712 69.0393C53.3063 68.9039 53.0896 68.6967 52.9483 68.4439C52.807 68.191 52.7475 67.9039 52.7774 67.6188C52.8073 67.3337 52.9252 67.0635 53.1162 66.8423C53.3072 66.6211 53.5627 66.4589 53.8504 66.3762C54.1381 66.2934 54.4452 66.2939 54.7326 66.3775C55.1179 66.4896 55.4408 66.7429 55.6302 67.0818C55.8196 67.4208 55.8601 67.8176 55.7427 68.1849Z" stroke="#263238" stroke-miterlimit="10"/>
<path d="M199.934 85.1763L182.964 80.2737C182.17 80.0444 181.331 80.472 181.091 81.2289L178.116 90.5844C177.876 91.3413 178.324 92.1409 179.118 92.3703L196.088 97.2729C196.882 97.5022 197.721 97.0746 197.962 96.3177L200.936 86.9622C201.177 86.2053 200.728 85.4057 199.934 85.1763Z" stroke="#263238" stroke-miterlimit="10"/>
<path d="M180.633 82.6689L200.479 88.4013" stroke="#263238" stroke-miterlimit="10"/>
<path d="M180.03 84.5698L199.872 90.3022" stroke="#263238" stroke-miterlimit="10"/>
<path d="M193.837 93.8398C193.786 93.9991 193.769 94.1667 193.788 94.3322C193.808 94.4978 193.862 94.6579 193.948 94.8027C193.761 94.8896 193.554 94.9317 193.346 94.9254C193.138 94.9191 192.934 94.8646 192.753 94.7666C192.572 94.6686 192.418 94.53 192.306 94.3628C192.193 94.1956 192.125 94.0048 192.107 93.8069C192.089 93.609 192.122 93.41 192.203 93.2269C192.284 93.0439 192.41 92.8824 192.571 92.7563C192.732 92.6302 192.923 92.5433 193.127 92.5032C193.331 92.4631 193.543 92.471 193.743 92.5261C194.06 92.6171 194.329 92.8218 194.492 93.0973C194.335 93.172 194.196 93.2764 194.084 93.4041C193.971 93.5318 193.887 93.6801 193.837 93.8398Z" stroke="#263238" stroke-miterlimit="10"/>
<path d="M196.306 94.566C196.231 94.7964 196.085 95.0003 195.888 95.1521C195.691 95.3038 195.451 95.3967 195.199 95.4189C194.947 95.4411 194.694 95.3917 194.471 95.2769C194.248 95.1621 194.066 94.987 193.947 94.7737C193.828 94.5604 193.778 94.3184 193.804 94.0781C193.829 93.8378 193.928 93.6101 194.089 93.4234C194.249 93.2368 194.465 93.0996 194.707 93.0292C194.949 92.9588 195.208 92.9583 195.45 93.0278C195.613 93.0744 195.765 93.1513 195.896 93.254C196.027 93.3568 196.136 93.4834 196.215 93.6265C196.295 93.7695 196.344 93.9262 196.36 94.0875C196.375 94.2488 196.357 94.4114 196.306 94.566Z" stroke="#263238" stroke-miterlimit="10"/>
<path d="M172.775 40.4793L148.001 51.2915L153.902 63.578L178.676 52.7658L172.775 40.4793Z" stroke="#263238" stroke-miterlimit="10"/>
<path d="M176.546 50.9996L172.796 43.1945C172.446 43.347 172.047 43.3609 171.686 43.2332C171.325 43.1055 171.032 42.8466 170.87 42.5132L150.844 51.2525C151.004 51.5865 151.019 51.9672 150.885 52.3113C150.751 52.6554 150.479 52.9349 150.13 53.0885L153.879 60.8936C154.052 60.8177 154.24 60.7752 154.431 60.7686C154.622 60.762 154.812 60.7913 154.991 60.855C155.17 60.9187 155.334 61.0154 155.474 61.1397C155.613 61.2639 155.726 61.4132 155.805 61.579L175.827 52.8356C175.747 52.6701 175.702 52.4912 175.696 52.3093C175.689 52.1273 175.719 51.9458 175.786 51.7752C175.853 51.6047 175.954 51.4483 176.085 51.3152C176.215 51.1821 176.372 51.0749 176.546 50.9996Z" stroke="#263238" stroke-miterlimit="10"/>
<path d="M165.607 54.847C167.238 53.6527 167.544 51.4243 166.291 49.8697C165.039 48.315 162.701 48.0228 161.07 49.2171C159.439 50.4113 159.133 52.6397 160.385 54.1944C161.638 55.749 163.976 56.0412 165.607 54.847Z" stroke="#263238" stroke-miterlimit="10"/>
<path d="M164.352 53.7498L164.63 54.3292L164.365 54.4434L164.091 53.8722C163.622 54.0667 163.097 54.0985 162.606 53.962V53.607C163.039 53.7321 163.505 53.7105 163.924 53.5458L163.295 52.2239C162.644 52.3422 161.972 52.432 161.651 51.7628C161.42 51.2814 161.583 50.702 162.362 50.29L162.084 49.7065L162.349 49.5923L162.64 50.1839C163.025 50.0247 163.449 49.971 163.864 50.0288V50.3838C163.498 50.3335 163.125 50.3743 162.781 50.5021L163.423 51.8404C164.087 51.7139 164.793 51.5996 165.135 52.2769C165.349 52.7461 165.165 53.3377 164.352 53.7498ZM163.128 51.8689L162.52 50.5919C161.994 50.8734 161.878 51.2488 162.032 51.567C162.212 51.9668 162.64 51.9505 163.124 51.8689H163.128ZM164.741 52.4442C164.553 52.0362 164.099 52.077 163.594 52.1708L164.198 53.4316C164.78 53.1378 164.891 52.7665 164.737 52.4442H164.741Z" fill="#263238"/>
<path d="M36.0564 96.4476L17.0061 98.082L17.8978 107.527L36.9481 105.893L36.0564 96.4476Z" stroke="#263238" stroke-width="1.00404" stroke-miterlimit="10"/>
<path d="M35.417 103.983L34.8777 98.0053C34.6094 98.0268 34.3431 97.9462 34.1369 97.781C33.9308 97.6159 33.8017 97.3797 33.7777 97.124L18.4382 98.3888C18.4596 98.6444 18.3746 98.8976 18.2016 99.0939C18.0286 99.2901 17.7815 99.4135 17.5137 99.4374L18.053 105.415C18.186 105.403 18.32 105.417 18.4473 105.456C18.5746 105.494 18.6927 105.556 18.7949 105.638C18.8971 105.719 18.9813 105.82 19.0428 105.933C19.1042 106.046 19.1417 106.169 19.153 106.296L34.4925 105.031C34.4711 104.776 34.5561 104.522 34.7291 104.326C34.9021 104.13 35.1492 104.006 35.417 103.983Z" stroke="#263238" stroke-miterlimit="10"/>
<path d="M29.0612 101.498C29.1059 101.988 28.9972 102.479 28.7489 102.91C28.5006 103.34 28.1239 103.691 27.6664 103.918C27.2088 104.145 26.6911 104.237 26.1786 104.183C25.6661 104.129 25.1819 103.931 24.7872 103.615C24.3925 103.299 24.1051 102.878 23.9614 102.406C23.8176 101.934 23.8239 101.432 23.9795 100.963C24.1351 100.495 24.433 100.081 24.8355 99.7734C25.238 99.4662 25.727 99.2797 26.2407 99.2375C26.5817 99.209 26.9252 99.2448 27.2516 99.3431C27.578 99.4413 27.8809 99.5999 28.1429 99.8099C28.4049 100.02 28.6209 100.277 28.7785 100.567C28.936 100.856 29.0321 101.173 29.0612 101.498Z" stroke="#263238" stroke-miterlimit="10"/>
<path d="M26.7072 103.073L26.7457 103.518H26.5446L26.5018 103.077C26.1461 103.1 25.7933 103.003 25.5045 102.804L25.5987 102.575C25.8541 102.752 26.1649 102.841 26.4804 102.828L26.3905 101.812C25.9325 101.747 25.466 101.653 25.4232 101.143C25.389 100.772 25.6372 100.425 26.2535 100.327L26.215 99.8823H26.4162L26.4547 100.319C26.7515 100.301 27.0478 100.362 27.3107 100.494L27.2294 100.727C27.001 100.614 26.7462 100.558 26.4889 100.564L26.5788 101.588C27.0453 101.653 27.5418 101.739 27.5889 102.257C27.6146 102.636 27.3449 102.983 26.7072 103.073ZM26.3648 101.559L26.2749 100.592C25.8469 100.662 25.6928 100.882 25.7142 101.127C25.7356 101.372 26.0224 101.506 26.3648 101.559ZM27.285 102.302C27.255 101.996 26.9512 101.894 26.5959 101.861L26.6815 102.828C27.1266 102.759 27.3064 102.547 27.285 102.302Z" fill="#263238"/>
<path d="M190.173 45.9854C192.23 45.9854 193.897 44.3962 193.897 42.4358C193.897 40.4754 192.23 38.8862 190.173 38.8862C188.117 38.8862 186.45 40.4754 186.45 42.4358C186.45 44.3962 188.117 45.9854 190.173 45.9854Z" stroke="#263238" stroke-miterlimit="10"/>
<path d="M190.34 44.4064V45.0429H190.032V44.4105C189.522 44.4008 189.03 44.2236 188.641 43.9086L188.808 43.5904C189.148 43.8753 189.58 44.0421 190.032 44.0637V42.6071C189.39 42.4561 188.748 42.2685 188.748 41.5341C188.748 41.0037 189.15 40.5426 190.032 40.4773V39.8286H190.323V40.461C190.743 40.4695 191.152 40.5896 191.504 40.8078L191.359 41.1342C191.048 40.9434 190.692 40.8323 190.323 40.8119V42.2807C190.978 42.4317 191.671 42.6071 191.671 43.3537C191.688 43.8882 191.265 44.3574 190.34 44.4064ZM190.049 42.2073V40.8241C189.45 40.8731 189.193 41.1669 189.193 41.5177C189.176 41.938 189.57 42.093 190.032 42.2073H190.049ZM191.265 43.3741C191.265 42.9376 190.837 42.7866 190.34 42.6683V44.0637C190.978 44.0106 191.265 43.7291 191.265 43.3741Z" fill="#263238"/>
<path d="M165.648 89.9234C167.65 89.4737 168.89 87.5624 168.418 85.6543C167.947 83.7461 165.942 82.5638 163.94 83.0135C161.938 83.4631 160.698 85.3745 161.17 87.2826C161.641 89.1907 163.646 90.373 165.648 89.9234Z" stroke="#263238" stroke-miterlimit="10"/>
<path d="M163.855 88.2256L163.509 88.7682L163.261 88.6213L163.607 88.0828C163.176 87.8217 162.855 87.4246 162.7 86.9608L163.017 86.7731C163.151 87.1838 163.427 87.5391 163.8 87.7809L164.604 86.5365C164.138 86.0917 163.689 85.6062 164.091 84.982C164.382 84.5291 164.977 84.3373 165.773 84.7249L166.124 84.1782L166.372 84.3251L166.025 84.8637C166.376 85.0817 166.659 85.3862 166.843 85.7449L166.539 85.953C166.378 85.6365 166.135 85.3642 165.833 85.1615L165.024 86.4141C165.503 86.871 165.995 87.3647 165.585 88.0012C165.289 88.4581 164.673 88.6417 163.855 88.2256ZM164.818 86.1856L165.576 85.0065C165.041 84.7494 164.652 84.8637 164.459 85.1615C164.228 85.5409 164.472 85.8714 164.818 86.206V86.1856ZM165.212 87.7849C165.452 87.4137 165.174 87.075 164.81 86.7241L164.048 87.9073C164.617 88.2093 165.015 88.1277 165.208 87.8053L165.212 87.7849Z" fill="#263238"/>
<path d="M111.357 17.9518C111.663 18.5904 111.763 19.3011 111.645 19.994C111.527 20.687 111.197 21.3311 110.695 21.8448C110.193 22.3586 109.543 22.719 108.826 22.8804C108.109 23.0418 107.359 22.9971 106.669 22.7518C105.979 22.5065 105.38 22.0717 104.95 21.5023C104.519 20.9329 104.275 20.2546 104.248 19.553C104.222 18.8515 104.415 18.1583 104.801 17.561C105.188 16.9637 105.752 16.4891 106.422 16.1974C106.867 16.0031 107.348 15.8943 107.836 15.8773C108.325 15.8604 108.813 15.9355 109.271 16.0985C109.73 16.2615 110.15 16.5091 110.508 16.8271C110.866 17.1451 111.154 17.5273 111.357 17.9518Z" stroke="#263238" stroke-miterlimit="10"/>
<path d="M108.982 21.1465L109.26 21.7258L108.994 21.8441L108.712 21.2689C108.243 21.4634 107.718 21.4951 107.227 21.3586V21.0037C107.659 21.1281 108.122 21.108 108.541 20.9465L107.907 19.6165C107.257 19.7348 106.585 19.8205 106.264 19.1554C106.033 18.6699 106.195 18.0946 106.979 17.6825L106.7 17.0991L106.961 16.9849L107.24 17.5601C107.625 17.4009 108.049 17.3472 108.464 17.4051V17.7601C108.098 17.7107 107.725 17.7514 107.381 17.8784L108.023 19.2166C108.686 19.0901 109.392 18.98 109.735 19.6532C109.996 20.1428 109.799 20.7344 108.982 21.1465ZM107.758 19.2656L107.154 18.0049C106.628 18.2864 106.512 18.6617 106.666 18.9759C106.85 19.3594 107.274 19.3472 107.758 19.2656ZM109.371 19.8409C109.178 19.4329 108.729 19.4777 108.224 19.5675L108.828 20.8282C109.388 20.5345 109.525 20.1673 109.371 19.8409Z" fill="#263238"/>
<path d="M98.8167 161.702C99.2762 162.662 99.4269 163.729 99.2499 164.77C99.0728 165.811 98.5759 166.779 97.822 167.551C97.0681 168.323 96.091 168.864 95.0143 169.107C93.9376 169.349 92.8097 169.282 91.7731 168.913C90.7365 168.545 89.8379 167.892 89.1908 167.036C88.5436 166.181 88.1771 165.162 88.1376 164.108C88.0981 163.054 88.3873 162.012 88.9686 161.115C89.55 160.218 90.3974 159.505 91.4037 159.067C92.072 158.776 92.7938 158.613 93.5281 158.588C94.2623 158.563 94.9945 158.676 95.6829 158.921C96.3713 159.165 97.0023 159.537 97.54 160.014C98.0777 160.492 98.5115 161.065 98.8167 161.702Z" stroke="#263238" stroke-miterlimit="10"/>
<path d="M95.2428 166.509L95.6708 167.382L95.2728 167.553L94.8448 166.688C94.1415 166.982 93.3523 167.031 92.6149 166.827L92.6406 166.297C93.2902 166.481 93.9866 166.448 94.6137 166.203L93.6592 164.212C92.6877 164.387 91.6733 164.518 91.194 163.518C90.843 162.792 91.0912 161.923 92.264 161.303L91.836 160.434L92.2297 160.258L92.6577 161.123C93.237 160.886 93.8739 160.805 94.4981 160.891V161.421C93.9502 161.347 93.3916 161.409 92.876 161.601L93.8347 163.608C94.832 163.42 95.8934 163.253 96.3813 164.265C96.7494 165.003 96.4755 165.893 95.2428 166.509ZM93.411 163.681L92.4994 161.788C91.7161 162.196 91.5406 162.772 91.7718 163.253C92.0457 163.828 92.6791 163.808 93.411 163.681ZM95.8335 164.55C95.5467 163.951 94.8662 164 94.1215 164.142L95.0288 166.036C95.872 165.591 96.0646 165.036 95.8335 164.55Z" fill="#263238"/>
<path d="M18.6865 78.8375C17.8553 79.5335 16.8264 79.9789 15.7297 80.1174C14.633 80.256 13.5179 80.0814 12.5252 79.6159C11.5326 79.1503 10.7071 78.4147 10.153 77.5019C9.59894 76.5891 9.34122 75.5402 9.41242 74.4879C9.48362 73.4355 9.88056 72.4269 10.553 71.5895C11.2255 70.7521 12.1434 70.1237 13.1905 69.7835C14.2376 69.4434 15.3671 69.4069 16.436 69.6786C17.5049 69.9502 18.4653 70.518 19.1958 71.3099C19.681 71.836 20.0528 72.4481 20.2898 73.1111C20.5268 73.7742 20.6244 74.4753 20.5771 75.1743C20.5298 75.8734 20.3385 76.5567 20.0141 77.1852C19.6897 77.8138 19.2386 78.3752 18.6865 78.8375Z" stroke="#263238" stroke-miterlimit="10"/>
<path d="M12.84 76.9607L12.0867 77.5931L11.7957 77.279L12.5447 76.6547C12.0484 76.095 11.7716 75.3883 11.7614 74.6555L12.305 74.525C12.3052 75.1677 12.5329 75.7916 12.9513 76.2957L14.6633 74.8514C14.2053 74.015 13.7816 73.1255 14.6633 72.4034C15.2967 71.877 16.2383 71.8526 17.197 72.742L17.976 72.1137L18.2627 72.4238L17.5137 73.0521C17.9122 73.5141 18.1698 74.0716 18.2585 74.6637L17.7277 74.831C17.6425 74.3093 17.4202 73.8166 17.0815 73.3989L15.3395 74.8554C15.8146 75.7082 16.2897 76.6302 15.4123 77.3687C14.7745 77.8991 13.803 77.9277 12.84 76.9607ZM15.1512 74.4719L16.7904 73.097C16.1399 72.5013 15.5064 72.5054 15.1127 72.8522C14.5991 73.2683 14.8045 73.8477 15.1383 74.4719H15.1512ZM14.9757 76.9199C15.4979 76.4874 15.2539 75.8795 14.8944 75.2267L13.2551 76.6017C13.9271 77.2586 14.552 77.283 14.98 76.9322L14.9757 76.9199Z" fill="#263238"/>
<path d="M44.2947 124.321C44.3544 122.899 43.1936 121.7 41.7021 121.643C40.2105 121.587 38.953 122.693 38.8934 124.115C38.8337 125.537 39.9945 126.736 41.486 126.792C42.9776 126.849 44.2351 125.743 44.2947 124.321Z" stroke="#263238" stroke-width="1.0008" stroke-miterlimit="10"/>
<path d="M42.372 124.717L42.6801 125.072L42.5218 125.198L42.2136 124.848C41.924 125.069 41.5622 125.188 41.1907 125.182L41.1308 124.929C41.4574 124.937 41.7774 124.84 42.0381 124.652L41.3276 123.836C40.8996 124.036 40.446 124.219 40.0864 123.811C39.8296 123.517 39.8296 123.081 40.2919 122.648L39.9794 122.293L40.1421 122.167L40.4502 122.518C40.6885 122.337 40.9743 122.223 41.2763 122.187L41.3533 122.432C41.0888 122.467 40.8374 122.564 40.6214 122.714L41.3362 123.53C41.7642 123.322 42.2478 123.122 42.6202 123.53C42.8813 123.832 42.8727 124.28 42.372 124.717ZM41.1479 123.624L40.4716 122.852C40.1635 123.146 40.1592 123.428 40.3261 123.624C40.493 123.819 40.8269 123.766 41.1479 123.624ZM42.3934 123.734C42.1794 123.493 41.8712 123.595 41.5374 123.754L42.2136 124.525C42.5432 124.215 42.5646 123.93 42.3934 123.73V123.734Z" fill="#263238"/>
<path d="M127.369 175.101C127.71 175.492 127.922 175.971 127.979 176.478C128.035 176.984 127.932 177.495 127.684 177.945C127.435 178.396 127.052 178.767 126.583 179.01C126.114 179.253 125.58 179.358 125.048 179.312C124.516 179.266 124.01 179.07 123.595 178.75C123.18 178.43 122.873 178 122.714 177.514C122.556 177.028 122.551 176.508 122.703 176.019C122.854 175.531 123.153 175.097 123.564 174.771C124.114 174.334 124.824 174.124 125.538 174.186C126.251 174.248 126.909 174.577 127.369 175.101Z" stroke="#263238" stroke-miterlimit="10"/>
<path d="M126.341 177.774L126.654 178.129L126.491 178.255L126.183 177.904C125.895 178.126 125.535 178.244 125.164 178.239L125.104 177.986C125.431 177.996 125.752 177.898 126.012 177.708L125.301 176.892C124.873 177.092 124.415 177.276 124.06 176.868C123.799 176.574 123.799 176.138 124.261 175.705L123.953 175.35L124.116 175.224L124.424 175.575C124.661 175.393 124.947 175.278 125.25 175.244L125.327 175.489C125.061 175.524 124.808 175.62 124.591 175.77L125.31 176.586C125.738 176.378 126.221 176.178 126.594 176.586C126.842 176.888 126.834 177.337 126.341 177.774ZM125.113 176.664L124.437 175.893C124.124 176.187 124.12 176.468 124.291 176.664C124.462 176.86 124.788 176.823 125.113 176.664ZM126.354 176.778C126.14 176.533 125.832 176.635 125.498 176.778L126.174 177.549C126.508 177.272 126.53 176.986 126.354 176.79V176.778Z" fill="#263238"/>
<path d="M53.4517 28.4309C53.5879 27.015 52.4943 25.7619 51.009 25.6321C49.5237 25.5022 48.2092 26.5448 48.0729 27.9607C47.9367 29.3766 49.0304 30.6297 50.5157 30.7595C52.001 30.8894 53.3155 29.8468 53.4517 28.4309Z" stroke="#263238" stroke-miterlimit="10"/>
<path d="M51.8179 29.2209L52.1261 29.5759L51.9635 29.7023L51.6553 29.3515C51.3678 29.574 51.007 29.6925 50.6367 29.686L50.5767 29.4331C50.9034 29.4412 51.2234 29.3434 51.4841 29.1556L50.7736 28.3396C50.3456 28.5395 49.8877 28.7231 49.5324 28.3151C49.2756 28.0214 49.2713 27.5848 49.7379 27.1523L49.4254 26.7974L49.5881 26.6709L49.8962 27.0218C50.134 26.8406 50.4201 26.7262 50.7223 26.6913L50.7993 26.9361C50.5348 26.9711 50.2834 27.0678 50.0674 27.2176L50.7822 28.0336C51.2102 27.8255 51.6938 27.6256 52.0662 28.0336C52.3187 28.3355 52.3059 28.7843 51.8179 29.2209ZM50.5853 28.1234L49.9091 27.3359C49.6009 27.6297 49.5923 27.9112 49.7635 28.1071C49.9347 28.3029 50.26 28.2703 50.5853 28.1234ZM51.8308 28.2335C51.6168 27.9928 51.3043 28.0948 50.9748 28.2335L51.651 29.0047C51.9806 28.7191 52.002 28.4335 51.8308 28.2335Z" fill="#263238"/>
<path opacity="0.2" d="M111.627 133.747C111.627 133.747 108.327 149.712 88.0867 153.331C88.0867 153.331 82.8009 157.35 81.0418 159.728C79.2827 162.107 69.9138 166.15 60.3694 178.766C50.825 191.381 36.6154 151.319 36.6154 151.319L68.0221 112.437L111.627 133.747Z" fill="black" fill-opacity="0.7"/>
<path d="M129.616 58.7849C129.616 58.7849 140.53 53.6971 142.931 54.5743C145.332 55.4515 147.639 60.7147 138.458 65.7535C129.277 70.7923 132.017 80.1804 132.017 80.1804H138.565C138.565 80.1804 142.494 81.7063 144.022 83.6688C145.55 85.6313 146.641 92.3225 147.514 94.591C148.388 96.8594 147.942 99.132 145.55 99.8705C145.55 99.8705 144.022 106.219 144.459 109.034C144.895 111.849 144.677 113.661 141.839 114.004C141.125 114.075 140.404 113.997 139.724 113.775C139.045 113.554 138.424 113.195 137.905 112.722C137.386 112.249 136.981 111.675 136.718 111.038C136.455 110.401 136.34 109.717 136.382 109.034L134.199 116.574L135.727 119.471C137.886 120.267 139.881 121.419 141.621 122.874C144.677 125.37 147.733 126.052 146.86 128.834C145.987 131.617 144.24 134.616 135.073 131.14C125.905 127.663 118.265 114.004 118.265 114.004L112.757 66.3737L129.616 58.7849Z" fill="white"/>
<path opacity="0.4" d="M141.103 86.1452C136.155 92.5752 141.629 99.9804 141.629 99.9804C141.629 99.9804 138.205 101.8 138.107 106.443C138.069 108.373 138.578 111.07 139.186 113.567C138.296 113.166 137.553 112.52 137.054 111.711C136.555 110.903 136.322 109.97 136.386 109.034L134.199 116.574L135.727 119.467C137.335 120.053 138.85 120.848 140.23 121.829C138.873 124.799 138.458 128.471 138.578 132.257C137.386 131.956 136.215 131.582 135.073 131.139C125.905 127.659 118.265 114.003 118.265 114.003L112.757 66.3694L129.616 58.7847C129.616 58.7847 135.578 56.0062 139.661 54.9087C139.344 58.5481 140.089 62.3139 140.628 64.411C139.932 64.8969 139.207 65.345 138.458 65.7533C129.29 70.7921 132.017 80.1802 132.017 80.1802H138.569C138.569 80.1802 142.301 81.6327 143.902 83.5217C142.807 84.2242 141.858 85.1136 141.103 86.1452Z" fill="#90CAF9"/>
<path d="M112.564 126.072C112.564 126.072 100.691 148.263 79.2913 153.298C79.2913 153.298 78.4738 157.688 74.8529 159.573C72.9184 160.577 65.1116 171.727 58.2594 181.907L20.3043 159.712C22.6412 157.508 25.3034 154.971 28.0083 152.323C35.9263 144.628 44.375 136.003 46.9602 131.735C49.2714 127.941 52.1946 121.356 54.7412 115.166C58.0026 107.251 60.6562 99.9804 60.6562 99.9804L73.3078 86.5735L93.197 65.4922L94.053 68.1891L112.564 126.072Z" fill="white"/>
<path opacity="0.4" d="M93.2141 65.4922L112.564 126.072C112.564 126.072 100.691 148.263 79.2913 153.298C79.2913 153.298 78.4738 157.688 74.8529 159.573C73.1152 160.475 66.6482 169.553 60.3908 178.749C62.7106 171.16 69.4259 159.063 69.4259 159.063C65.1159 154.195 66.3742 149.067 68.0991 150.528C69.8239 151.988 74.1596 156.093 74.4335 156.35C72.5289 154.212 72.088 150.862 72.088 150.862C72.088 150.862 77.4295 154.249 77.8618 148.822C78.294 143.396 74.6603 130.136 74.6603 130.136L65.1202 95.268L93.2141 65.4922Z" fill="#90CAF9"/>
<path d="M112.757 66.3737L129.616 58.7849C129.616 58.7849 140.53 53.6971 142.931 54.5743C145.332 55.4515 147.639 60.7147 138.458 65.7535C129.277 70.7923 132.017 80.1804 132.017 80.1804H138.565C138.565 80.1804 142.494 81.7063 144.022 83.6688C145.55 85.6313 146.641 92.3225 147.514 94.591C148.388 96.8594 147.942 99.132 145.55 99.8705C145.55 99.8705 144.022 106.219 144.459 109.034C144.895 111.849 144.677 113.661 141.839 114.004C141.125 114.075 140.404 113.997 139.724 113.775C139.045 113.554 138.424 113.195 137.905 112.722C137.386 112.249 136.981 111.675 136.718 111.038C136.455 110.401 136.34 109.717 136.382 109.034L134.199 116.574L135.727 119.471C137.886 120.267 139.881 121.419 141.621 122.874C144.677 125.37 147.733 126.052 146.86 128.834C145.987 131.617 144.24 134.616 135.073 131.14C125.905 127.663 118.265 114.004 118.265 114.004" stroke="#263238" stroke-linecap="round" stroke-linejoin="round"/>
<path d="M145.55 99.8703C142.276 100.715 138.458 100.091 137.037 94.5663C135.616 89.0419 138.458 83.1422 140.311 82.5996" stroke="#263238" stroke-linecap="round" stroke-linejoin="round"/>
<path d="M136.382 109.034C136.382 109.034 136.164 101.931 138.895 100.176" stroke="#263238" stroke-linecap="round" stroke-linejoin="round"/>
<path opacity="0.4" d="M56.7614 144.314C56.7614 144.314 48.7621 143.363 46.9773 139.953C45.5007 137.129 37.4971 147.705 28.0255 152.323C35.9435 144.628 44.3922 136.003 46.9773 131.735C49.2885 127.941 52.2117 121.356 54.7583 115.167C54.6299 120.299 51.7623 128.157 52.5798 132.249C51.7039 132.47 50.9544 133.011 50.4938 133.755C50.0332 134.499 49.8985 135.386 50.1188 136.223C50.7309 139.475 56.7614 144.314 56.7614 144.314Z" fill="#90CAF9"/>
<path d="M112.564 126.072C112.564 126.072 100.691 148.263 79.287 153.298C79.287 153.298 78.4738 157.688 74.8529 159.573C72.9183 160.577 65.1159 171.727 58.2551 181.907" stroke="#263238" stroke-linecap="round" stroke-linejoin="round"/>
<path d="M20.3043 159.712C29.4464 151.099 43.4976 137.443 46.9773 131.735C52.2417 123.098 60.6733 99.9763 60.6733 99.9763L93.2013 65.4922" stroke="#263238" stroke-linecap="round" stroke-linejoin="round"/>
<path d="M74.6389 91.8286C74.6389 91.8286 79.638 96.0963 81.0589 99.9886" stroke="#263238" stroke-linecap="round" stroke-linejoin="round"/>
<path d="M133.647 29.6699H79.8605C78.2697 29.6699 76.9801 30.8993 76.9801 32.4158V141.568C76.9801 143.084 78.2697 144.314 79.8605 144.314H133.647C135.238 144.314 136.528 143.084 136.528 141.568V32.4158C136.528 30.8993 135.238 29.6699 133.647 29.6699Z" fill="#263238"/>
<path d="M118.556 32.7911L117.418 34.7781C117.297 34.9937 117.118 35.1743 116.899 35.3007C116.679 35.4271 116.428 35.4946 116.172 35.4962H97.34C97.0842 35.4949 96.8334 35.4283 96.6137 35.3035C96.3939 35.1787 96.2132 35.0001 96.0903 34.7862L94.9561 32.7993C94.8342 32.5846 94.6537 32.4053 94.4337 32.2803C94.2137 32.1553 93.9624 32.0894 93.7063 32.0894H80.5453C80.3578 32.0899 80.1722 32.1257 79.9992 32.1947C79.8263 32.2638 79.6693 32.3646 79.5372 32.4916C79.4052 32.6186 79.3008 32.7691 79.23 32.9347C79.1591 33.1002 79.1232 33.2774 79.1244 33.4562V140.76C79.1244 141.12 79.2739 141.465 79.5403 141.719C79.8066 141.974 80.1681 142.118 80.5453 142.119H132.958C133.146 142.12 133.332 142.086 133.506 142.018C133.68 141.95 133.838 141.85 133.972 141.724C134.105 141.597 134.211 141.447 134.283 141.282C134.355 141.117 134.392 140.939 134.392 140.76V33.4562C134.392 33.0958 134.242 32.7502 133.975 32.4955C133.707 32.2407 133.345 32.0975 132.967 32.0975H119.81C119.555 32.0952 119.304 32.1583 119.083 32.2804C118.863 32.4024 118.68 32.5788 118.556 32.7911Z" fill="#90CAF9" stroke="#263238" stroke-linecap="round" stroke-linejoin="round"/>
<path d="M102.669 33.7541C103.092 33.7541 103.435 33.4271 103.435 33.0238C103.435 32.6204 103.092 32.2935 102.669 32.2935C102.246 32.2935 101.903 32.6204 101.903 33.0238C101.903 33.4271 102.246 33.7541 102.669 33.7541Z" stroke="white" stroke-miterlimit="10"/>
<path d="M111.601 33.0239C111.6 33.1132 111.572 33.2004 111.519 33.2743C111.466 33.3483 111.392 33.4057 111.305 33.4393C111.218 33.473 111.123 33.4814 111.031 33.4635C110.939 33.4455 110.855 33.4021 110.789 33.3386C110.723 33.2751 110.678 33.1944 110.66 33.1066C110.642 33.0189 110.651 32.9281 110.687 32.8455C110.724 32.763 110.784 32.6925 110.862 32.6429C110.94 32.5934 111.032 32.5669 111.126 32.5669C111.189 32.5669 111.251 32.5787 111.309 32.6018C111.367 32.6248 111.419 32.6585 111.463 32.701C111.508 32.7435 111.542 32.7939 111.566 32.8493C111.59 32.9047 111.602 32.964 111.601 33.0239Z" stroke="white" stroke-miterlimit="10"/>
<path d="M109.47 32.7383H104.813C104.774 32.7383 104.735 32.7457 104.699 32.7601C104.663 32.7745 104.63 32.7956 104.603 32.8222C104.575 32.8487 104.553 32.8803 104.539 32.9149C104.524 32.9495 104.517 32.9866 104.518 33.0239C104.518 33.0985 104.549 33.1702 104.604 33.2229C104.659 33.2757 104.735 33.3054 104.813 33.3054H109.47C109.548 33.3054 109.623 33.2757 109.678 33.2229C109.734 33.1702 109.765 33.0985 109.765 33.0239C109.765 32.9866 109.758 32.9495 109.744 32.9149C109.729 32.8803 109.707 32.8487 109.68 32.8222C109.652 32.7956 109.62 32.7745 109.584 32.7601C109.547 32.7457 109.509 32.7383 109.47 32.7383Z" fill="white"/>
<path d="M88.8699 34.8105H83.8495V36.8424H88.8699V34.8105Z" stroke="#263238" stroke-linecap="round" stroke-linejoin="round"/>
<path d="M89.6446 35.1533H88.8657V36.5038H89.6446V35.1533Z" stroke="#263238" stroke-linecap="round" stroke-linejoin="round"/>
<path d="M124.445 36.1084H123.555V36.8469H124.445V36.1084Z" stroke="#263238" stroke-linecap="round" stroke-linejoin="round"/>
<path d="M126.183 35.3657H125.293V36.8468H126.183V35.3657Z" stroke="#263238" stroke-linecap="round" stroke-linejoin="round"/>
<path d="M127.921 34.623H127.03V36.8426H127.921V34.623Z" stroke="#263238" stroke-linecap="round" stroke-linejoin="round"/>
<path d="M129.654 33.8804H128.764V36.8425H129.654V33.8804Z" stroke="#263238" stroke-linecap="round" stroke-linejoin="round"/>
<path opacity="0.5" d="M134.024 55.7983H79.4796V105.391H134.024V55.7983Z" fill="white"/>
<path d="M94.5452 47.8791V48.74C94.5452 49.8049 94.0102 50.372 92.9145 50.372H92.3966V52.8649H91.301V46.2349H92.9145C94.0102 46.2349 94.5452 46.8142 94.5452 47.8791ZM92.4052 47.1855V49.4336H92.9231C93.2698 49.4336 93.4581 49.2826 93.4581 48.8093V47.8097C93.4581 47.3365 93.2698 47.1855 92.9231 47.1855H92.4052Z" fill="#263238"/>
<path d="M98.47 52.8771H97.3657L97.1731 51.6735H95.8335L95.6409 52.8771H94.6351L95.7522 46.2349H97.3529L98.47 52.8771ZM95.9704 50.7718H97.0276L96.5097 47.414H96.4883L95.9704 50.7718Z" fill="#263238"/>
<path d="M99.5143 50.678L98.1318 46.2349H99.296L100.122 49.2622H100.143L100.969 46.2349H102.014L100.631 50.678V52.8771H99.5357L99.5143 50.678Z" fill="#263238"/>
<path d="M104.74 50.9513H104.762L105.498 46.2349H107.021V52.8771H105.986V48.1157L105.249 52.8771H104.214L103.418 48.181V52.8771H102.42V46.2349H103.944L104.74 50.9513Z" fill="#263238"/>
<path d="M108.913 49.0337H110.424V49.9844H108.922V51.9305H110.814V52.8771H107.818V46.2349H110.814V47.1855H108.922L108.913 49.0337Z" fill="#263238"/>
<path d="M112.478 48.0668H112.457V52.8771H111.473V46.2349H112.846L113.951 50.2129V46.2349H114.927V52.8771H113.805L112.478 48.0668Z" fill="#263238"/>
<path d="M115.414 46.2349H118.8V47.1855H117.653V52.8771H116.557V47.1855H115.414V46.2349Z" fill="#263238"/>
<path d="M120.752 46.1611C121.813 46.1611 122.361 46.7691 122.361 47.8299V48.0379H121.325V47.7646C121.325 47.2872 121.128 47.1077 120.777 47.1077C120.426 47.1077 120.234 47.2872 120.234 47.7646C120.234 48.2419 120.452 48.6091 121.167 49.2048C122.083 49.9759 122.374 50.5227 122.374 51.2815C122.374 52.3464 121.813 52.9543 120.739 52.9543C119.665 52.9543 119.108 52.3464 119.108 51.2815V50.8735H120.144V51.3509C120.144 51.8242 120.362 51.9955 120.709 51.9955C121.056 51.9955 121.278 51.8242 121.278 51.3509C121.278 50.8776 121.06 50.5063 120.341 49.9066C119.425 49.1395 119.138 48.5887 119.138 47.8299C119.138 46.7691 119.686 46.1611 120.752 46.1611Z" fill="#263238"/>
<path d="M129.654 61.8081H83.8495V68.332H129.654V61.8081Z" fill="white" stroke="#263238" stroke-linecap="round" stroke-linejoin="round"/>
<path d="M129.654 74.0439H83.8495V80.5679H129.654V74.0439Z" fill="white" stroke="#263238" stroke-linecap="round" stroke-linejoin="round"/>
<path d="M129.654 85.1699H83.8495V91.6938H129.654V85.1699Z" fill="white" stroke="#263238" stroke-linecap="round" stroke-linejoin="round"/>
<path d="M105.536 94.0728H83.8495V101.711H105.536V94.0728Z" fill="white" stroke="#263238" stroke-linecap="round" stroke-linejoin="round"/>
<path d="M129.658 94.0728H107.972V101.711H129.658V94.0728Z" fill="white" stroke="#263238" stroke-linecap="round" stroke-linejoin="round"/>
<path d="M86.7042 60.6699V60.8454H85.2704V58.9155H86.6614V59.091H85.4887V59.7805H86.533V59.9519H85.4887V60.6699H86.7042Z" fill="#263238"/>
<path d="M89.6746 60.0049V60.8454H89.452V60.0294C89.452 59.7234 89.2894 59.5643 89.024 59.5643C88.9526 59.5614 88.8814 59.5734 88.8153 59.5994C88.7492 59.6254 88.6899 59.6648 88.6414 59.7149C88.5929 59.765 88.5565 59.8246 88.5346 59.8895C88.5127 59.9543 88.5059 60.023 88.5147 60.0906V60.8495H88.3093V60.0335C88.3093 59.7275 88.1466 59.5684 87.8813 59.5684C87.8098 59.5655 87.7386 59.5775 87.6725 59.6035C87.6065 59.6295 87.5471 59.6689 87.4987 59.719C87.4502 59.7691 87.4137 59.8287 87.3918 59.8935C87.37 59.9584 87.3632 60.0271 87.3719 60.0947V60.8536H87.1665V59.4052H87.3634V59.6704C87.4219 59.5802 87.5049 59.5068 87.6036 59.458C87.7023 59.4091 87.813 59.3867 87.9241 59.3929C88.0362 59.3839 88.1485 59.4086 88.2452 59.4634C88.3419 59.5183 88.4182 59.6007 88.4633 59.6989C88.5257 59.6008 88.6147 59.5206 88.7209 59.4667C88.8271 59.4129 88.9466 59.3874 89.0668 59.3929C89.1511 59.3875 89.2356 59.3999 89.3142 59.4293C89.3929 59.4586 89.4638 59.5041 89.5218 59.5626C89.5799 59.621 89.6237 59.691 89.6501 59.7675C89.6765 59.8439 89.6849 59.925 89.6746 60.0049Z" fill="#263238"/>
<path d="M91.3822 59.9475V60.8451H91.1854V60.6207C91.1276 60.7015 91.0485 60.7663 90.9561 60.8086C90.8637 60.8508 90.7611 60.8691 90.6589 60.8614C90.3165 60.8614 90.1068 60.6901 90.1068 60.4534C90.1068 60.2168 90.2566 60.0454 90.6932 60.0454H91.164V59.9557C91.164 59.7068 91.0142 59.5722 90.736 59.5722C90.5515 59.5694 90.3721 59.6303 90.2309 59.7435L90.1368 59.5967C90.3142 59.4659 90.5331 59.3968 90.7574 59.4008C90.838 59.3882 90.9205 59.3932 90.9988 59.4155C91.0771 59.4378 91.149 59.4767 91.2092 59.5294C91.2694 59.582 91.3162 59.647 91.3462 59.7195C91.3762 59.7919 91.3885 59.8699 91.3822 59.9475ZM91.1768 60.4127V60.1719H90.6975C90.4021 60.1719 90.308 60.2821 90.308 60.433C90.308 60.584 90.4492 60.7064 90.6932 60.7064C90.7937 60.7092 90.8928 60.6825 90.977 60.63C91.0611 60.5775 91.1264 60.5016 91.164 60.4127H91.1768Z" fill="#263238"/>
<path d="M91.8916 58.94C91.8927 58.9028 91.909 58.8675 91.937 58.8416C91.9649 58.8157 92.0024 58.8013 92.0414 58.8013C92.08 58.8013 92.117 58.8159 92.1443 58.8419C92.1716 58.8679 92.1869 58.9032 92.1869 58.94C92.1869 58.9768 92.1716 59.0121 92.1443 59.0381C92.117 59.0641 92.08 59.0787 92.0414 59.0787C92.0024 59.0787 91.9649 59.0642 91.937 59.0383C91.909 59.0124 91.8927 58.9772 91.8916 58.94ZM91.9387 59.397H92.1441V60.8454H91.9387V59.397Z" fill="#263238"/>
<path d="M92.7177 58.8013H92.9221V60.8413H92.7177V58.8013Z" fill="#263238"/>
<path d="M88.1209 65.688V65.8634H86.6871V63.9336H88.0781V64.109H86.884V64.7945H87.9326V64.9699H86.884V65.688H88.1209Z" fill="#263238"/>
<path d="M91.0912 65.0148V65.8552H90.8858V65.0392C90.8858 64.7332 90.7232 64.5741 90.4578 64.5741C90.3866 64.5706 90.3154 64.582 90.2493 64.6076C90.1833 64.6331 90.1238 64.6721 90.0753 64.7219C90.0267 64.7717 89.9902 64.831 89.9683 64.8957C89.9464 64.9604 89.9396 65.0289 89.9485 65.0964V65.8593H89.743V65.0433C89.743 64.7373 89.5804 64.5782 89.315 64.5782C89.2438 64.5747 89.1727 64.5861 89.1066 64.6116C89.0405 64.6372 88.9811 64.6762 88.9325 64.726C88.884 64.7758 88.8475 64.8351 88.8256 64.8998C88.8036 64.9645 88.7969 65.033 88.8057 65.1004V65.8634H88.596V64.4109H88.7929V64.6761C88.8523 64.587 88.9356 64.5147 89.0342 64.4666C89.1327 64.4185 89.243 64.3965 89.3536 64.4028C89.4655 64.395 89.5773 64.4201 89.6737 64.4749C89.7702 64.5296 89.8467 64.6112 89.8928 64.7088C89.9548 64.6103 90.0437 64.5299 90.1501 64.476C90.2564 64.4221 90.3761 64.3967 90.4963 64.4028C90.5795 64.3992 90.6626 64.413 90.7396 64.4431C90.8167 64.4733 90.886 64.5191 90.9426 64.5773C90.9992 64.6356 91.0418 64.7049 91.0675 64.7804C91.0932 64.856 91.1013 64.9359 91.0912 65.0148Z" fill="#263238"/>
<path d="M92.7947 64.9578V65.8554H92.5978V65.631C92.5409 65.7113 92.4624 65.7756 92.3706 65.8172C92.2787 65.8588 92.1769 65.8762 92.0756 65.8676C91.7332 65.8676 91.5192 65.6963 91.5192 65.4596C91.5192 65.223 91.6733 65.0516 92.1099 65.0516H92.5935V64.966C92.5935 64.7171 92.4437 64.5824 92.1655 64.5824C91.9798 64.5802 91.7993 64.6409 91.6562 64.7538L91.5663 64.6069C91.7424 64.4737 91.9623 64.4043 92.1869 64.4111C92.2662 64.4012 92.3469 64.4083 92.423 64.4318C92.4991 64.4553 92.5687 64.4946 92.6269 64.5469C92.6851 64.5993 92.7303 64.6633 92.7593 64.7343C92.7883 64.8054 92.8004 64.8817 92.7947 64.9578ZM92.5935 65.4188V65.1822H92.1141C91.8188 65.1822 91.7247 65.2924 91.7247 65.4433C91.7247 65.5943 91.8659 65.7167 92.1099 65.7167C92.2132 65.7224 92.3157 65.6965 92.4027 65.643C92.4896 65.5895 92.5565 65.511 92.5935 65.4188Z" fill="#263238"/>
<path d="M93.304 63.9459C93.3051 63.9087 93.3214 63.8735 93.3494 63.8476C93.3774 63.8217 93.4148 63.8072 93.4538 63.8072C93.4733 63.8066 93.4927 63.8098 93.5108 63.8166C93.529 63.8233 93.5455 63.8334 93.5595 63.8463C93.5735 63.8593 93.5846 63.8748 93.5921 63.8919C93.5997 63.909 93.6036 63.9273 93.6036 63.9459C93.6036 63.9838 93.5878 64.0201 93.5597 64.0469C93.5316 64.0737 93.4935 64.0887 93.4538 64.0887C93.4141 64.0887 93.376 64.0737 93.3479 64.0469C93.3198 64.0201 93.304 63.9838 93.304 63.9459ZM93.3511 64.4029H93.5565V65.8554H93.3511V64.4029Z" fill="#263238"/>
<path d="M94.1343 63.8071H94.3345V65.8471H94.1343V63.8071Z" fill="#263238"/>
<path d="M96.3 65.0148V65.8553H96.0946V65.0393C96.1037 64.979 96.0985 64.9176 96.0794 64.8594C96.0604 64.8013 96.0279 64.748 95.9844 64.7034C95.9409 64.6588 95.8874 64.624 95.828 64.6016C95.7686 64.5793 95.7046 64.5699 95.6409 64.5742C95.568 64.5684 95.4946 64.578 95.4261 64.6024C95.3575 64.6267 95.2954 64.6653 95.2443 64.7152C95.1932 64.7651 95.1543 64.8251 95.1304 64.891C95.1064 64.9569 95.0981 65.0271 95.1059 65.0964V65.8594H94.9005V64.4069H95.0973V64.6762C95.1593 64.5853 95.2454 64.5118 95.3469 64.463C95.4484 64.4143 95.5617 64.3921 95.6751 64.3988C95.7608 64.3922 95.8469 64.4038 95.9273 64.4328C96.0077 64.4617 96.0804 64.5073 96.1402 64.5662C96.1999 64.6251 96.2452 64.6958 96.2729 64.7734C96.3005 64.851 96.3098 64.9334 96.3 65.0148Z" fill="#263238"/>
<path d="M98.012 64.9579V65.8555H97.8151V65.6311C97.7582 65.7114 97.6797 65.7757 97.5879 65.8173C97.4961 65.8589 97.3942 65.8763 97.293 65.8677C96.9463 65.8677 96.7366 65.6963 96.7366 65.4597C96.7366 65.2231 96.8864 65.0517 97.3229 65.0517H97.8066V64.966C97.8066 64.7171 97.6611 64.5825 97.3786 64.5825C97.1941 64.5798 97.0147 64.6406 96.8735 64.7539L96.7794 64.607C96.9558 64.4744 97.1754 64.4051 97.4 64.4111C97.4796 64.4006 97.5607 64.4072 97.6374 64.4304C97.714 64.4536 97.7842 64.4928 97.8429 64.5452C97.9016 64.5976 97.9472 64.6619 97.9765 64.7333C98.0057 64.8047 98.0179 64.8814 98.012 64.9579ZM97.8066 65.4189V65.1823H97.3315C97.0362 65.1823 96.9377 65.2924 96.9377 65.4434C96.9377 65.5943 97.079 65.7167 97.3229 65.7167C97.427 65.7233 97.5305 65.6979 97.6183 65.6443C97.7061 65.5907 97.7736 65.5117 97.8108 65.4189H97.8066Z" fill="#263238"/>
<path d="M101.085 65.0152V65.8557H100.88V65.0397C100.88 64.7337 100.717 64.5745 100.452 64.5745C100.38 64.571 100.309 64.5825 100.243 64.608C100.177 64.6335 100.118 64.6726 100.069 64.7223C100.021 64.7721 99.984 64.8315 99.9621 64.8962C99.9402 64.9608 99.9334 65.0293 99.9423 65.0968V65.8597H99.724V65.0437C99.724 64.7377 99.5614 64.5786 99.296 64.5786C99.2248 64.5751 99.1536 64.5865 99.0875 64.6121C99.0214 64.6376 98.962 64.6766 98.9135 64.7264C98.8649 64.7762 98.8284 64.8355 98.8065 64.9002C98.7846 64.9649 98.7778 65.0334 98.7867 65.1009V65.8638H98.5812V64.4113H98.7781V64.6765C98.8375 64.5874 98.9208 64.5151 99.0194 64.467C99.118 64.419 99.2283 64.3969 99.3388 64.4032C99.4509 64.3942 99.5632 64.4188 99.6599 64.4737C99.7567 64.5286 99.8329 64.6109 99.8781 64.7092C99.9404 64.6111 100.029 64.5308 100.136 64.477C100.242 64.4231 100.361 64.3976 100.482 64.4032C100.565 64.3984 100.649 64.4113 100.728 64.4409C100.806 64.4705 100.876 64.5161 100.934 64.5745C100.991 64.6329 101.035 64.7026 101.061 64.7788C101.087 64.8549 101.095 64.9356 101.085 65.0152Z" fill="#263238"/>
<path d="M102.973 65.1906H101.689C101.699 65.3328 101.769 65.4651 101.882 65.5584C101.995 65.6518 102.143 65.6985 102.292 65.6884C102.38 65.6907 102.467 65.6747 102.547 65.6416C102.628 65.6085 102.7 65.559 102.759 65.4966L102.874 65.6231C102.765 65.7324 102.624 65.8086 102.47 65.842C102.315 65.8754 102.154 65.8647 102.006 65.8111C101.858 65.7575 101.73 65.6635 101.637 65.5408C101.545 65.4181 101.493 65.2721 101.487 65.1213C101.482 65.0256 101.497 64.9298 101.533 64.8401C101.568 64.7503 101.622 64.6684 101.692 64.5995C101.762 64.5306 101.846 64.4762 101.939 64.4396C102.032 64.403 102.132 64.385 102.232 64.3869C102.332 64.385 102.432 64.4029 102.524 64.4396C102.617 64.4762 102.7 64.5308 102.769 64.5999C102.839 64.6689 102.892 64.7509 102.926 64.8407C102.96 64.9304 102.975 65.026 102.968 65.1213C102.968 65.1213 102.973 65.1702 102.973 65.1906ZM101.689 65.0437H102.767C102.767 64.9074 102.71 64.7766 102.609 64.6802C102.508 64.5838 102.371 64.5297 102.228 64.5297C102.085 64.5297 101.948 64.5838 101.846 64.6802C101.745 64.7766 101.689 64.9074 101.689 65.0437Z" fill="#263238"/>
<path d="M105.951 65.1253C105.951 65.5945 105.767 65.8679 105.468 65.8679C105.425 65.8701 105.383 65.8641 105.344 65.85C105.304 65.836 105.268 65.8144 105.237 65.7864C105.207 65.7585 105.182 65.7249 105.166 65.6876C105.15 65.6504 105.142 65.6104 105.142 65.57C105.083 65.6644 104.998 65.7418 104.896 65.7942C104.795 65.8465 104.68 65.872 104.565 65.8679C104.367 65.8679 104.178 65.7931 104.038 65.66C103.898 65.5268 103.82 65.3462 103.82 65.158C103.82 64.9697 103.898 64.7891 104.038 64.656C104.178 64.5228 104.367 64.448 104.565 64.448C104.679 64.4434 104.792 64.4678 104.893 64.5187C104.993 64.5696 105.078 64.6452 105.138 64.7377V64.4644H105.327V65.5088C105.327 65.6639 105.408 65.721 105.506 65.721C105.682 65.721 105.797 65.5088 105.797 65.1376C105.802 64.9902 105.774 64.8435 105.715 64.7071C105.657 64.5706 105.569 64.4474 105.457 64.3455C105.345 64.2436 105.212 64.1651 105.067 64.1153C104.921 64.0655 104.766 64.0454 104.612 64.0564C104.459 64.0564 104.307 64.0851 104.166 64.1408C104.025 64.1966 103.897 64.2784 103.789 64.3814C103.68 64.4845 103.595 64.6068 103.536 64.7414C103.478 64.8761 103.448 65.0204 103.448 65.1661C103.448 65.3119 103.478 65.4562 103.536 65.5908C103.595 65.7255 103.68 65.8478 103.789 65.9508C103.897 66.0539 104.025 66.1356 104.166 66.1914C104.307 66.2472 104.459 66.2759 104.612 66.2759C104.804 66.2754 104.995 66.2336 105.168 66.1535L105.215 66.2881C105.027 66.3728 104.82 66.416 104.612 66.4146C104.264 66.4146 103.931 66.2831 103.686 66.0489C103.44 65.8148 103.302 65.4972 103.302 65.1661C103.302 64.835 103.44 64.5175 103.686 64.2833C103.931 64.0492 104.264 63.9176 104.612 63.9176C104.785 63.9057 104.958 63.9283 105.122 63.9838C105.285 64.0394 105.434 64.1267 105.56 64.2403C105.687 64.3539 105.786 64.4912 105.854 64.6436C105.921 64.796 105.954 64.96 105.951 65.1253ZM105.138 65.1539C105.145 65.0812 105.136 65.0079 105.111 64.9387C105.087 64.8696 105.047 64.806 104.995 64.7522C104.944 64.6983 104.881 64.6553 104.811 64.6259C104.741 64.5965 104.665 64.5813 104.588 64.5813C104.512 64.5813 104.436 64.5965 104.366 64.6259C104.296 64.6553 104.233 64.6983 104.181 64.7522C104.129 64.806 104.09 64.8696 104.065 64.9387C104.041 65.0079 104.031 65.0812 104.038 65.1539C104.031 65.2266 104.041 65.2999 104.065 65.3691C104.09 65.4382 104.129 65.5017 104.181 65.5556C104.233 65.6095 104.296 65.6525 104.366 65.6819C104.436 65.7113 104.512 65.7265 104.588 65.7265C104.665 65.7265 104.741 65.7113 104.811 65.6819C104.881 65.6525 104.944 65.6095 104.995 65.5556C105.047 65.5017 105.087 65.4382 105.111 65.3691C105.136 65.2999 105.145 65.2266 105.138 65.1539Z" fill="#263238"/>
<path d="M107.706 65.1903H106.422C106.427 65.261 106.446 65.3303 106.478 65.394C106.511 65.4578 106.556 65.5148 106.612 65.5618C106.667 65.6088 106.732 65.6449 106.802 65.668C106.873 65.691 106.947 65.7006 107.021 65.6962C107.109 65.6985 107.196 65.6825 107.277 65.6494C107.357 65.6163 107.429 65.5668 107.488 65.5044L107.604 65.6309C107.494 65.7402 107.354 65.8164 107.199 65.8498C107.045 65.8833 106.883 65.8725 106.735 65.8189C106.587 65.7654 106.459 65.6713 106.367 65.5486C106.275 65.4259 106.222 65.2799 106.217 65.1291C106.211 65.0334 106.227 64.9376 106.262 64.8479C106.297 64.7581 106.352 64.6762 106.421 64.6073C106.491 64.5384 106.575 64.484 106.668 64.4474C106.761 64.4108 106.861 64.3929 106.962 64.3947C107.062 64.3928 107.161 64.4107 107.254 64.4474C107.346 64.4841 107.43 64.5386 107.499 64.6077C107.568 64.6767 107.621 64.7587 107.656 64.8485C107.69 64.9382 107.704 65.0338 107.698 65.1291C107.698 65.1291 107.706 65.1699 107.706 65.1903ZM106.422 65.0434H107.501C107.501 64.907 107.444 64.7763 107.343 64.6799C107.242 64.5835 107.105 64.5293 106.962 64.5293C106.818 64.5293 106.681 64.5835 106.58 64.6799C106.479 64.7763 106.422 64.907 106.422 65.0434Z" fill="#263238"/>
<path d="M110.642 65.0149V65.8553H110.424V65.0393C110.424 64.7333 110.261 64.5742 109.996 64.5742C109.925 64.5707 109.854 64.5821 109.788 64.6077C109.721 64.6332 109.662 64.6722 109.613 64.722C109.565 64.7718 109.528 64.8311 109.507 64.8958C109.485 64.9605 109.478 65.029 109.487 65.0965V65.8594H109.281V65.0434C109.281 64.7374 109.119 64.5783 108.853 64.5783C108.782 64.5748 108.711 64.5862 108.645 64.6117C108.579 64.6373 108.519 64.6763 108.471 64.7261C108.422 64.7759 108.386 64.8352 108.364 64.8999C108.342 64.9646 108.335 65.0331 108.344 65.1005V65.8635H108.138V64.411H108.335V64.6762C108.394 64.5874 108.477 64.5153 108.574 64.4672C108.672 64.4191 108.782 64.3969 108.892 64.4029C109.004 64.3948 109.117 64.4198 109.214 64.4745C109.311 64.5292 109.388 64.611 109.435 64.7089C109.496 64.6105 109.584 64.5299 109.69 64.4759C109.796 64.422 109.915 64.3967 110.035 64.4029C110.119 64.3974 110.203 64.4098 110.282 64.4392C110.361 64.4685 110.431 64.514 110.49 64.5725C110.548 64.6309 110.591 64.7009 110.618 64.7774C110.644 64.8539 110.653 64.9349 110.642 65.0149Z" fill="#263238"/>
<path d="M112.346 64.958V65.8556H112.136V65.6312C112.079 65.7112 112 65.7752 111.908 65.8168C111.817 65.8584 111.715 65.876 111.614 65.8678C111.267 65.8678 111.057 65.6964 111.057 65.4598C111.057 65.2232 111.207 65.0518 111.644 65.0518H112.136V64.9661C112.136 64.7172 111.99 64.5826 111.708 64.5826C111.523 64.5799 111.344 64.6407 111.203 64.754L111.109 64.6071C111.285 64.4745 111.505 64.4052 111.729 64.4112C111.809 64.4 111.891 64.4061 111.968 64.429C112.045 64.4519 112.116 64.491 112.175 64.5435C112.234 64.596 112.28 64.6605 112.31 64.7322C112.339 64.804 112.352 64.8811 112.346 64.958ZM112.14 65.419V65.1824H111.665C111.37 65.1824 111.271 65.2925 111.271 65.4435C111.271 65.5944 111.413 65.7168 111.657 65.7168C111.759 65.7216 111.861 65.6954 111.947 65.6419C112.033 65.5885 112.099 65.5104 112.136 65.419H112.14Z" fill="#263238"/>
<path d="M112.859 63.946C112.859 63.9178 112.868 63.8902 112.885 63.8667C112.901 63.8432 112.924 63.8249 112.952 63.8141C112.979 63.8033 113.009 63.8005 113.038 63.806C113.067 63.8115 113.094 63.8251 113.115 63.845C113.136 63.865 113.15 63.8905 113.156 63.9182C113.162 63.9459 113.159 63.9746 113.148 64.0007C113.136 64.0268 113.117 64.0491 113.092 64.0648C113.068 64.0804 113.039 64.0888 113.009 64.0888C112.969 64.0888 112.931 64.0738 112.903 64.047C112.875 64.0202 112.859 63.9839 112.859 63.946ZM112.902 64.403H113.108V65.8555H112.902V64.403Z" fill="#263238"/>
<path d="M113.681 63.8071H113.885V65.8471H113.681V63.8071Z" fill="#263238"/>
<path d="M114.327 65.7168C114.327 65.6973 114.33 65.678 114.338 65.6599C114.345 65.6418 114.357 65.6254 114.371 65.6116C114.386 65.5979 114.403 65.5871 114.422 65.5799C114.441 65.5727 114.461 65.5693 114.481 65.5699C114.522 65.5699 114.561 65.5854 114.59 65.6129C114.619 65.6404 114.635 65.6778 114.635 65.7168C114.636 65.7561 114.619 65.7939 114.591 65.8221C114.562 65.8503 114.523 65.8667 114.481 65.8677C114.461 65.8677 114.44 65.8638 114.421 65.8562C114.402 65.8485 114.385 65.8373 114.371 65.8233C114.357 65.8092 114.345 65.7925 114.338 65.7742C114.33 65.7559 114.327 65.7364 114.327 65.7168Z" fill="#263238"/>
<path d="M114.875 65.1293C114.872 65.031 114.89 64.9332 114.929 64.842C114.967 64.7507 115.025 64.6681 115.099 64.5991C115.172 64.5302 115.26 64.4765 115.356 64.4413C115.453 64.4062 115.555 64.3904 115.658 64.3949C115.776 64.3876 115.893 64.4101 115.999 64.4603C116.104 64.5105 116.193 64.5865 116.258 64.6805L116.104 64.7784C116.055 64.7129 115.991 64.6593 115.917 64.6224C115.842 64.5855 115.76 64.5662 115.676 64.5663C115.527 64.5783 115.389 64.6431 115.288 64.7477C115.187 64.8524 115.131 64.9893 115.131 65.1314C115.131 65.2734 115.187 65.4104 115.288 65.515C115.389 65.6196 115.527 65.6844 115.676 65.6964C115.76 65.6972 115.843 65.6782 115.917 65.6412C115.992 65.6042 116.056 65.5503 116.104 65.4843L116.258 65.5822C116.193 65.6756 116.103 65.7511 115.998 65.8013C115.893 65.8514 115.776 65.8743 115.658 65.8678C115.555 65.8724 115.452 65.8565 115.355 65.8211C115.259 65.7857 115.171 65.7316 115.097 65.6622C115.023 65.5928 114.966 65.5096 114.928 65.4179C114.889 65.3262 114.872 65.2279 114.875 65.1293Z" fill="#263238"/>
<path d="M116.48 65.1291C116.48 64.983 116.526 64.8403 116.611 64.7188C116.696 64.5974 116.817 64.5027 116.958 64.4468C117.1 64.3909 117.256 64.3763 117.406 64.4048C117.556 64.4333 117.694 64.5036 117.803 64.6069C117.911 64.7102 117.985 64.8418 118.015 64.985C118.045 65.1283 118.029 65.2768 117.971 65.4117C117.912 65.5466 117.813 65.662 117.685 65.7431C117.558 65.8243 117.408 65.8676 117.255 65.8676C117.152 65.871 117.05 65.8542 116.954 65.8183C116.859 65.7824 116.772 65.7282 116.699 65.6589C116.626 65.5896 116.57 65.5068 116.532 65.4157C116.494 65.3246 116.477 65.227 116.48 65.1291ZM117.82 65.1291C117.816 65.0217 117.78 64.9177 117.714 64.8302C117.648 64.7428 117.557 64.6759 117.452 64.638C117.346 64.6001 117.231 64.5929 117.121 64.6174C117.012 64.6418 116.912 64.6968 116.835 64.7753C116.758 64.8539 116.707 64.9524 116.689 65.0585C116.671 65.1646 116.686 65.2734 116.733 65.3711C116.78 65.4689 116.856 65.5512 116.952 65.6076C117.048 65.6641 117.159 65.6921 117.272 65.6881C117.347 65.6871 117.421 65.6717 117.489 65.6427C117.558 65.6138 117.62 65.572 117.671 65.5198C117.722 65.4676 117.762 65.4061 117.787 65.339C117.813 65.2718 117.824 65.2004 117.82 65.1291Z" fill="#263238"/>
<path d="M120.957 65.0149V65.8553H120.752V65.0393C120.752 64.7333 120.589 64.5742 120.324 64.5742C120.252 64.5707 120.181 64.5821 120.115 64.6077C120.049 64.6332 119.99 64.6722 119.941 64.722C119.893 64.7718 119.856 64.8311 119.834 64.8958C119.812 64.9605 119.805 65.029 119.814 65.0965V65.8594H119.609V65.0434C119.609 64.7374 119.446 64.5783 119.181 64.5783C119.11 64.5748 119.039 64.5862 118.972 64.6117C118.906 64.6373 118.847 64.6763 118.798 64.7261C118.75 64.7759 118.713 64.8352 118.691 64.8999C118.669 64.9646 118.663 65.0331 118.672 65.1005V65.8635H118.466V64.411H118.663V64.6762C118.722 64.5874 118.804 64.5153 118.902 64.4672C119 64.4191 119.109 64.3969 119.219 64.4029C119.332 64.3948 119.444 64.4198 119.542 64.4745C119.639 64.5292 119.716 64.611 119.763 64.7089C119.824 64.6108 119.912 64.5304 120.018 64.4765C120.124 64.4226 120.243 64.3971 120.362 64.4029C120.445 64.3993 120.528 64.4131 120.605 64.4432C120.683 64.4734 120.752 64.5192 120.808 64.5774C120.865 64.6357 120.908 64.705 120.933 64.7805C120.959 64.856 120.967 64.936 120.957 65.0149Z" fill="#263238"/>
<path d="M87.0509 77.3407L87.4104 77.5366L87.3462 77.6508L86.9824 77.4509V77.8589H86.8498V77.4509L86.486 77.6508L86.4175 77.5366L86.7813 77.3407L86.4175 77.149L86.486 77.0307L86.8498 77.2347V76.8267H86.9824V77.2347L87.3462 77.0307L87.4104 77.149L87.0509 77.3407Z" fill="#263238"/>
<path d="M88.2279 77.3407L88.5875 77.5366L88.519 77.6508L88.1595 77.4509V77.8589H88.0225V77.4509L87.663 77.6508L87.5902 77.5366L87.954 77.3407L87.5902 77.149L87.663 77.0307L88.0225 77.2347V76.8267H88.168V77.2347L88.5275 77.0307L88.596 77.149L88.2279 77.3407Z" fill="#263238"/>
<path d="M89.4006 77.3407L89.7602 77.5366L89.6917 77.6508L89.3322 77.4509V77.8589H89.1995V77.4509L88.84 77.6508L88.7715 77.5366L89.131 77.3407L88.7715 77.149L88.84 77.0307L89.1995 77.2347V76.8267H89.3322V77.2347L89.6917 77.0307L89.7602 77.149L89.4006 77.3407Z" fill="#263238"/>
<path d="M90.5734 77.3407L90.9329 77.5366L90.8687 77.6508L90.5049 77.4509V77.8589H90.3722V77.4509L90.0084 77.6508L89.9399 77.5366L90.3037 77.3407L89.9399 77.149L90.0084 77.0307L90.3722 77.2347V76.8267H90.5049V77.2347L90.8687 77.0307L90.9329 77.149L90.5734 77.3407Z" fill="#263238"/>
<path d="M91.7504 77.3407L92.1099 77.5366L92.0414 77.6508L91.6819 77.4509V77.8589H91.5449V77.4509L91.1854 77.6508L91.1127 77.5366L91.4765 77.3407L91.1127 77.149L91.1854 77.0307L91.5449 77.2347V76.8267H91.6819V77.2347L92.0414 77.0307L92.1099 77.149L91.7504 77.3407Z" fill="#263238"/>
<path d="M92.9231 77.3407L93.2826 77.5366L93.2141 77.6508L92.8546 77.4509V77.8589H92.7219V77.4509L92.3624 77.6508L92.2939 77.5366L92.6535 77.3407L92.2939 77.149L92.3624 77.0307L92.7219 77.2347V76.8267H92.876V77.2347L93.2355 77.0307L93.304 77.149L92.9231 77.3407Z" fill="#263238"/>
<path d="M94.0958 77.3407L94.4553 77.5366L94.3911 77.6508L94.0273 77.4509V77.8589H93.8946V77.4509L93.5308 77.6508L93.4623 77.5366L93.8261 77.3407L93.4623 77.149L93.5308 77.0307L93.8946 77.2347V76.8267H94.0273V77.2347L94.3911 77.0307L94.4553 77.149L94.0958 77.3407Z" fill="#263238"/>
<path d="M95.2728 77.3407L95.6323 77.5366L95.5638 77.6508L95.2 77.4509V77.8589H95.0673V77.4509L94.7078 77.6508L94.6351 77.5366L94.9989 77.3407L94.6351 77.149L94.7078 77.0307L95.0673 77.2347V76.8267H95.2V77.2347L95.5638 77.0307L95.6323 77.149L95.2728 77.3407Z" fill="#263238"/>
<path d="M96.4455 77.3407L96.805 77.5366L96.7365 77.6508L96.377 77.4509V77.8589H96.2443V77.4509L95.8848 77.6508L95.8163 77.5366L96.1759 77.3407L95.8163 77.149L95.8848 77.0307L96.2443 77.2347V76.8267H96.377V77.2347L96.7365 77.0307L96.805 77.149L96.4455 77.3407Z" fill="#263238"/>
<path d="M97.6182 77.3407L97.9778 77.5366L97.9136 77.6508L97.5498 77.4509V77.8589H97.4171V77.4509L97.0533 77.6508L96.9848 77.5366L97.3443 77.3407L96.9848 77.149L97.0533 77.0307L97.4171 77.2347V76.8267H97.5498V77.2347L97.9136 77.0307L97.9778 77.149L97.6182 77.3407Z" fill="#263238"/>
<path d="M98.7953 77.3407L99.1505 77.5366L99.0863 77.6508L98.7225 77.4509V77.8589H98.5898V77.4509L98.2303 77.6508L98.1575 77.5366L98.5213 77.3407L98.1575 77.149L98.2303 77.0307L98.5898 77.2347V76.8267H98.7225V77.2347L99.0863 77.0307L99.1505 77.149L98.7953 77.3407Z" fill="#263238"/>
<path d="M86.8583 71.8081C86.8583 72.2161 86.5459 72.469 86.0323 72.469H85.4887V73.077H85.2704V71.1553H86.028C86.5459 71.1553 86.8583 71.4001 86.8583 71.8081ZM86.6443 71.8081C86.6443 71.498 86.4303 71.3226 86.0237 71.3226H85.4887V72.2895H86.028C86.4303 72.2977 86.6443 72.1222 86.6443 71.8081Z" fill="#263238"/>
<path d="M88.412 72.1878V73.0854H88.2151V72.861C88.1572 72.9414 88.0779 73.0056 87.9854 73.0472C87.8929 73.0887 87.7905 73.1062 87.6887 73.0977C87.3463 73.0977 87.1365 72.9304 87.1365 72.6897C87.1365 72.449 87.2863 72.2817 87.7229 72.2817H88.2065V72.196C88.2065 71.9471 88.0567 71.8125 87.7785 71.8125C87.594 71.8098 87.4147 71.8706 87.2735 71.9838L87.1793 71.837C87.3557 71.7044 87.5754 71.6351 87.7999 71.6411C87.8796 71.6306 87.9607 71.6371 88.0373 71.6603C88.114 71.6835 88.1842 71.7228 88.2429 71.7752C88.3016 71.8276 88.3472 71.8919 88.3765 71.9633C88.4057 72.0347 88.4179 72.1114 88.412 72.1878ZM88.2065 72.6489V72.4122H87.74C87.4447 72.4122 87.3505 72.5224 87.3505 72.6734C87.3505 72.8243 87.4918 72.9467 87.7357 72.9467C87.8369 72.9498 87.9366 72.9227 88.021 72.8694C88.1053 72.816 88.1702 72.739 88.2065 72.6489Z" fill="#263238"/>
<path d="M88.7587 72.9219L88.8485 72.7668C89.0077 72.8734 89.1976 72.9305 89.3921 72.93C89.6789 72.93 89.7987 72.8362 89.7987 72.6893C89.7987 72.3139 88.8143 72.6118 88.8143 72.0365C88.8143 71.7999 89.0283 71.6285 89.4135 71.6285C89.6027 71.6262 89.7891 71.6727 89.9528 71.7631L89.8629 71.9182C89.7293 71.8354 89.5728 71.7928 89.4135 71.7958C89.1396 71.7958 89.0197 71.8978 89.0197 72.0365C89.0197 72.4445 90.0041 72.1344 90.0041 72.6893C90.0041 72.9423 89.773 73.0973 89.375 73.0973C89.155 73.1041 88.9387 73.0425 88.7587 72.9219Z" fill="#263238"/>
<path d="M90.171 72.9219L90.2652 72.7669C90.4225 72.8739 90.6112 72.931 90.8045 72.9301C91.0955 72.9301 91.2325 72.8362 91.2325 72.6893C91.2325 72.314 90.2481 72.6118 90.2481 72.0365C90.2481 71.7999 90.4621 71.6285 90.8515 71.6285C91.0395 71.6257 91.2246 71.6723 91.3865 71.7632L91.2967 71.9182C91.1693 71.8391 91.0207 71.7966 90.8687 71.7958C90.5905 71.7958 90.4706 71.8978 90.4706 72.0365C90.4706 72.4445 91.455 72.1345 91.455 72.6893C91.455 72.9423 91.2239 73.0973 90.8301 73.0973C90.5958 73.1131 90.3629 73.0511 90.171 72.9219Z" fill="#263238"/>
<path d="M94.0016 71.6367L93.4238 73.0851H93.2312L92.7519 71.8978L92.2725 73.0851H92.0756L91.5064 71.6367H91.7033L92.1784 72.8607L92.6663 71.6367H92.846L93.3297 72.8607L93.8133 71.6367H94.0016Z" fill="#263238"/>
<path d="M94.1129 72.3591C94.1129 72.213 94.1583 72.0703 94.2434 71.9488C94.3286 71.8274 94.4496 71.7327 94.5911 71.6768C94.7327 71.6209 94.8884 71.6063 95.0387 71.6348C95.189 71.6633 95.327 71.7336 95.4353 71.8369C95.5437 71.9402 95.6175 72.0718 95.6474 72.215C95.6772 72.3583 95.6619 72.5068 95.6033 72.6417C95.5446 72.7766 95.4453 72.892 95.318 72.9731C95.1906 73.0543 95.0408 73.0976 94.8876 73.0976C94.7849 73.101 94.6825 73.0842 94.5869 73.0483C94.4913 73.0124 94.4045 72.9581 94.3318 72.8889C94.2591 72.8196 94.2022 72.7368 94.1645 72.6457C94.1269 72.5545 94.1093 72.457 94.1129 72.3591ZM95.4525 72.3591C95.4525 72.2163 95.393 72.0793 95.287 71.9783C95.1811 71.8773 95.0374 71.8205 94.8876 71.8205C94.7377 71.8205 94.594 71.8773 94.4881 71.9783C94.3821 72.0793 94.3226 72.2163 94.3226 72.3591C94.3226 72.5019 94.3821 72.6389 94.4881 72.7399C94.594 72.8409 94.7377 72.8976 94.8876 72.8976C95.0374 72.8976 95.1811 72.8409 95.287 72.7399C95.393 72.6389 95.4525 72.5019 95.4525 72.3591Z" fill="#263238"/>
<path d="M96.8478 71.6246V71.8082H96.7965C96.7242 71.8051 96.6522 71.8173 96.5854 71.8438C96.5186 71.8703 96.4588 71.9104 96.4102 71.9615C96.3616 72.0125 96.3253 72.0731 96.3041 72.139C96.2828 72.2049 96.277 72.2744 96.2872 72.3427V73.0812H96.0817V71.6328H96.3V71.9143C96.3516 71.8202 96.431 71.7426 96.5284 71.6912C96.6257 71.6397 96.7368 71.6165 96.8478 71.6246Z" fill="#263238"/>
<path d="M98.5898 71.0412V73.0812H98.3929V72.7956C98.3319 72.8906 98.2454 72.9683 98.1423 73.0207C98.0392 73.073 97.9233 73.0982 97.8066 73.0934C97.6116 73.0796 97.4293 72.996 97.2963 72.8594C97.1633 72.7228 97.0894 72.5434 97.0894 72.357C97.0894 72.1706 97.1633 71.9912 97.2963 71.8546C97.4293 71.718 97.6116 71.6344 97.8066 71.6205C97.9206 71.6164 98.0337 71.6406 98.135 71.6906C98.2363 71.7407 98.3222 71.8149 98.3844 71.9062V71.0371L98.5898 71.0412ZM98.3886 72.359C98.3828 72.2539 98.3447 72.1527 98.2792 72.068C98.2137 71.9833 98.1235 71.9187 98.0199 71.8823C97.9163 71.8459 97.8038 71.8392 97.6962 71.8631C97.5887 71.887 97.4908 71.9404 97.4148 72.0167C97.3388 72.0931 97.2879 72.189 97.2684 72.2926C97.2489 72.3962 97.2617 72.503 97.3052 72.5997C97.3487 72.6965 97.421 72.779 97.5131 72.837C97.6053 72.895 97.7132 72.926 97.8237 72.9262C97.9008 72.9275 97.9774 72.9135 98.0486 72.885C98.1197 72.8566 98.1839 72.8144 98.237 72.7611C98.2902 72.7077 98.3311 72.6445 98.3572 72.5752C98.3833 72.506 98.394 72.4324 98.3886 72.359Z" fill="#263238"/>
<path d="M101.633 87.7202V89.6541H101.436V87.8997H100.957V87.7202H101.633Z" fill="#263238"/>
<path d="M103.499 89.4663V89.6458H102.078V89.503L102.934 88.7155C103.161 88.5034 103.208 88.3728 103.208 88.2423C103.208 88.0179 103.041 87.8791 102.733 87.8791C102.63 87.8728 102.526 87.889 102.431 87.9265C102.335 87.9639 102.249 88.0217 102.181 88.0954L102.031 87.973C102.122 87.8794 102.234 87.8061 102.358 87.7581C102.482 87.7102 102.616 87.6888 102.75 87.6955C103.178 87.6955 103.422 87.8955 103.422 88.2178C103.415 88.3354 103.382 88.4503 103.324 88.5546C103.267 88.6588 103.186 88.7499 103.088 88.8216L102.399 89.4663H103.499Z" fill="#263238"/>
<path d="M105.1 89.0911C105.1 89.4134 104.851 89.6623 104.364 89.6623C104.097 89.6703 103.837 89.5813 103.636 89.4134L103.734 89.2543C103.906 89.4042 104.131 89.4847 104.364 89.4787C104.702 89.4787 104.886 89.3318 104.886 89.0911C104.886 88.8504 104.714 88.7076 104.338 88.7076H104.192V88.5607L104.753 87.8916H103.717V87.7202H105.001V87.863L104.432 88.5362C104.881 88.5648 105.1 88.781 105.1 89.0911Z" fill="#263238"/>
<path d="M107.111 89.1358H106.705V89.6458H106.499V89.1358H105.357V88.993L106.431 87.7119H106.662L105.626 88.9441H106.504V88.4953H106.705V88.9441H107.111V89.1358Z" fill="#263238"/>
<path d="M109.435 89.0745C109.435 89.405 109.196 89.662 108.699 89.662C108.432 89.6696 108.172 89.5807 107.972 89.4132L108.074 89.254C108.157 89.329 108.254 89.3874 108.361 89.4259C108.467 89.4645 108.581 89.4823 108.695 89.4784C109.042 89.4784 109.221 89.3193 109.221 89.0704C109.221 88.8216 109.059 88.6624 108.545 88.6624H108.117L108.224 87.6914H109.333V87.8709H108.404L108.335 88.4829H108.596C109.204 88.5033 109.435 88.7359 109.435 89.0745Z" fill="#263238"/>
<path d="M111.22 89.0664C111.219 89.15 111.2 89.2326 111.164 89.3089C111.128 89.3851 111.076 89.4535 111.011 89.5095C110.946 89.5655 110.869 89.608 110.786 89.6342C110.702 89.6605 110.614 89.67 110.527 89.662C109.987 89.662 109.696 89.303 109.696 88.6951C109.696 88.0872 110.073 87.6955 110.621 87.6955C110.789 87.6894 110.956 87.726 111.105 87.8016L111.019 87.9607C110.899 87.8954 110.763 87.8643 110.625 87.8709C110.197 87.8709 109.906 88.1361 109.906 88.6624C109.906 88.7073 109.906 88.7604 109.906 88.8175C109.965 88.7113 110.055 88.6236 110.165 88.565C110.275 88.5064 110.401 88.4793 110.527 88.487C110.613 88.4766 110.701 88.4838 110.784 88.5081C110.868 88.5325 110.945 88.5733 111.01 88.6281C111.076 88.6828 111.128 88.7502 111.164 88.8258C111.201 88.9013 111.22 88.9833 111.22 89.0664ZM111.015 89.0664C111.015 88.8093 110.818 88.6584 110.505 88.6584C110.443 88.651 110.379 88.6559 110.319 88.6726C110.258 88.6894 110.201 88.7177 110.153 88.7558C110.104 88.794 110.064 88.8411 110.035 88.8945C110.005 88.9479 109.988 89.0064 109.983 89.0664C109.983 89.2785 110.167 89.4744 110.518 89.4744C110.579 89.4838 110.641 89.4805 110.701 89.4648C110.76 89.4491 110.816 89.4213 110.863 89.3833C110.91 89.3453 110.948 89.298 110.974 89.2447C111 89.1914 111.014 89.1334 111.015 89.0745V89.0664Z" fill="#263238"/>
<path d="M112.864 87.7202V87.863L112.008 89.6541H111.781L112.615 87.8997H111.575V88.2588H111.37V87.7202H112.864Z" fill="#263238"/>
<path d="M114.64 89.1073C114.64 89.45 114.336 89.6622 113.852 89.6622C113.369 89.6622 113.073 89.45 113.073 89.1073C113.072 88.9974 113.11 88.8904 113.181 88.8037C113.251 88.717 113.351 88.6558 113.463 88.6299C113.369 88.606 113.287 88.5527 113.23 88.4786C113.172 88.4045 113.143 88.314 113.146 88.2219C113.146 87.9078 113.424 87.7119 113.852 87.7119C114.28 87.7119 114.567 87.9078 114.567 88.2219C114.566 88.3141 114.533 88.4034 114.475 88.4768C114.416 88.5502 114.335 88.6038 114.242 88.6299C114.355 88.6548 114.456 88.7156 114.528 88.8023C114.601 88.889 114.64 88.9965 114.64 89.1073ZM114.426 89.1073C114.426 88.8706 114.212 88.7197 113.852 88.7197C113.493 88.7197 113.283 88.8706 113.283 89.1073C113.283 89.3439 113.493 89.5153 113.852 89.5153C114.212 89.5153 114.426 89.3521 114.426 89.1032V89.1073ZM113.848 88.5606C114.165 88.5606 114.353 88.4259 114.353 88.2138C114.353 88.0016 114.152 87.867 113.848 87.867C113.544 87.867 113.347 87.9975 113.347 88.2138C113.347 88.43 113.536 88.5606 113.848 88.5606Z" fill="#263238"/>
<path d="M117.148 88.6625C117.148 89.3194 116.771 89.6621 116.219 89.6621C116.052 89.6677 115.887 89.6311 115.74 89.5561L115.825 89.3969C115.945 89.4622 116.082 89.4934 116.219 89.4867C116.647 89.4867 116.934 89.2174 116.934 88.6952C116.938 88.6436 116.938 88.5917 116.934 88.5401C116.876 88.6467 116.787 88.7348 116.678 88.7936C116.568 88.8523 116.443 88.8791 116.318 88.8706C116.232 88.8798 116.145 88.8716 116.063 88.8467C115.98 88.8219 115.905 88.7808 115.84 88.7262C115.775 88.6715 115.724 88.6046 115.688 88.5297C115.652 88.4548 115.633 88.3735 115.633 88.2913C115.634 88.2076 115.653 88.125 115.689 88.0487C115.725 87.9725 115.777 87.9042 115.842 87.8482C115.907 87.7922 115.984 87.7497 116.067 87.7234C116.151 87.6971 116.239 87.6877 116.326 87.6956C116.844 87.6956 117.148 88.0546 117.148 88.6625ZM116.861 88.279C116.861 88.0669 116.677 87.871 116.326 87.871C116.264 87.8615 116.201 87.8649 116.141 87.8811C116.081 87.8973 116.025 87.9259 115.978 87.9647C115.931 88.0036 115.893 88.0519 115.867 88.1062C115.842 88.1605 115.829 88.2195 115.83 88.279C115.83 88.5361 116.027 88.687 116.339 88.687C116.463 88.6961 116.585 88.6583 116.679 88.5819C116.774 88.5055 116.833 88.3967 116.844 88.279H116.861Z" fill="#263238"/>
<path d="M118.004 87.7202V89.6541H117.794V87.8997H117.315V87.7202H118.004Z" fill="#263238"/>
<path d="M118.483 88.6791C118.483 88.063 118.826 87.6958 119.292 87.6958C119.759 87.6958 120.101 88.063 120.101 88.6791C120.101 89.2952 119.763 89.6624 119.292 89.6624C118.821 89.6624 118.483 89.2952 118.483 88.6791ZM119.887 88.6791C119.887 88.165 119.647 87.8631 119.292 87.8631C118.937 87.8631 118.697 88.1487 118.697 88.6791C118.697 89.2095 118.941 89.4951 119.292 89.4951C119.643 89.4951 119.887 89.1932 119.887 88.6791Z" fill="#263238"/>
<path d="M120.957 87.7202V89.6541H120.747V87.8997H120.268V87.7202H120.957Z" fill="#263238"/>
<path d="M122.759 87.7202V89.6541H122.549V87.8997H122.07V87.7202H122.759Z" fill="#263238"/>
<path d="M123.799 87.7202V89.6541H123.594V87.8997H123.114V87.7202H123.799Z" fill="#263238"/>
<path d="M125.665 89.4666V89.6461H124.244V89.5033L125.1 88.7159C125.327 88.5037 125.374 88.3731 125.374 88.2426C125.374 88.0182 125.207 87.8795 124.899 87.8795C124.796 87.8731 124.692 87.8893 124.597 87.9268C124.501 87.9643 124.416 88.022 124.347 88.0957L124.197 87.9733C124.289 87.8802 124.4 87.8071 124.525 87.7592C124.649 87.7113 124.782 87.6897 124.916 87.6959C125.344 87.6959 125.588 87.8958 125.588 88.2181C125.581 88.3358 125.548 88.4506 125.491 88.5549C125.433 88.6591 125.352 88.7502 125.254 88.8219L124.548 89.4666H125.665Z" fill="#263238"/>
<path d="M126.487 87.7202V89.6541H126.26V87.8997H125.785V87.7202H126.487Z" fill="#263238"/>
<path d="M92.3581 87.2712V86.9775C92.3581 86.8411 92.3013 86.7104 92.2002 86.614C92.0991 86.5175 91.9619 86.4634 91.8189 86.4634H86.3533C86.2103 86.4634 86.0731 86.5175 85.972 86.614C85.8708 86.7104 85.814 86.8411 85.814 86.9775V87.2712H92.3581Z" fill="#263238"/>
<path d="M85.814 87.6753V89.8377C85.814 89.974 85.8708 90.1048 85.972 90.2012C86.0731 90.2976 86.2103 90.3518 86.3533 90.3518H91.8189C91.9619 90.3518 92.0991 90.2976 92.2002 90.2012C92.3013 90.1048 92.3581 89.974 92.3581 89.8377V87.6753H85.814Z" fill="#263238"/>
<path d="M85.8953 99.0627C85.8953 98.4466 86.2334 98.0835 86.7042 98.0835C87.175 98.0835 87.5132 98.4466 87.5132 99.0627C87.5132 99.6788 87.1708 100.046 86.7042 100.046C86.2377 100.046 85.8953 99.6788 85.8953 99.0627ZM87.2992 99.0627C87.2992 98.5486 87.0552 98.2467 86.7042 98.2467C86.3533 98.2467 86.1093 98.5323 86.1093 99.0627C86.1093 99.5931 86.349 99.8787 86.7042 99.8787C87.0595 99.8787 87.312 99.5809 87.312 99.0627H87.2992Z" fill="#263238"/>
<path d="M89.3664 99.4909C89.3664 99.8336 89.0625 100.046 88.5789 100.046C88.0953 100.046 87.7999 99.8336 87.7999 99.4909C87.798 99.3814 87.8357 99.2746 87.9066 99.1884C87.9775 99.1022 88.0774 99.0419 88.1894 99.0176C88.0986 98.9896 88.0193 98.9351 87.9625 98.862C87.9057 98.7888 87.8743 98.7006 87.8727 98.6096C87.8727 98.2954 88.1509 98.0996 88.5789 98.0996C89.0069 98.0996 89.2937 98.2954 89.2937 98.6096C89.2911 98.7009 89.2589 98.7893 89.2014 98.8624C89.1439 98.9355 89.0639 98.9897 88.9727 99.0176C89.0851 99.0418 89.1855 99.102 89.2571 99.1881C89.3287 99.2741 89.3673 99.381 89.3664 99.4909ZM89.1524 99.4909C89.1524 99.2543 88.9384 99.1074 88.5789 99.1074C88.2194 99.1074 88.0097 99.2543 88.0097 99.4909C88.0097 99.7275 88.2237 99.8989 88.5789 99.8989C88.9341 99.8989 89.1524 99.7275 89.1524 99.4868V99.4909ZM88.596 98.9442C88.9127 98.9442 89.1011 98.8095 89.1011 98.6014C89.1011 98.3934 88.8999 98.2506 88.596 98.2506C88.2921 98.2506 88.0953 98.3811 88.0953 98.5974C88.0953 98.8136 88.2665 98.9442 88.596 98.9442Z" fill="#263238"/>
<path d="M90.3893 97.708H90.5777L89.6189 100.303H89.452L90.3893 97.708Z" fill="#263238"/>
<path d="M92.02 99.8498V100.029H90.599V99.8865L91.455 99.1032C91.6819 98.8869 91.7247 98.7564 91.7247 98.6258C91.7247 98.4014 91.562 98.2627 91.2539 98.2627C91.15 98.2563 91.046 98.2725 90.9496 98.3099C90.8533 98.3474 90.7671 98.4052 90.6975 98.4789L90.5519 98.3565C90.6432 98.2632 90.755 98.1903 90.8793 98.1431C91.0037 98.0958 91.1374 98.0754 91.271 98.0832C91.699 98.0832 91.9387 98.279 91.9387 98.6013C91.9343 98.719 91.9025 98.8343 91.8454 98.9387C91.7884 99.0432 91.7077 99.1342 91.6091 99.2052L90.92 99.8498H92.02Z" fill="#263238"/>
<path d="M93.6421 99.4581C93.6421 99.7886 93.4024 100.046 92.9059 100.046C92.6392 100.053 92.3792 99.9643 92.1783 99.7968L92.2811 99.6377C92.3636 99.7126 92.4611 99.771 92.5676 99.8095C92.6742 99.8481 92.7878 99.8659 92.9017 99.8621C93.2483 99.8621 93.4281 99.7029 93.4281 99.4541C93.4281 99.2052 93.2697 99.0461 92.7519 99.0461H92.3239L92.4266 98.0791H93.5351V98.2545H92.6063L92.5379 98.8706H92.7989C93.411 98.891 93.6421 99.1195 93.6421 99.4581Z" fill="#263238"/>
<path d="M86.8412 96.8555V96.9656H85.9509V95.7661H86.8069V95.8804H86.0793V96.2884H86.7299V96.3985H86.0793V96.8432L86.8412 96.8555Z" fill="#263238"/>
<path d="M87.924 96.9656L87.5217 96.4352L87.0937 96.9656H86.9396L87.419 96.3496L86.991 95.7661H87.1408L87.5217 96.2557L87.8984 95.7661H88.0396L87.6116 96.3455L88.091 96.9656H87.924Z" fill="#263238"/>
<path d="M89.2594 96.1782C89.2594 96.4312 89.0625 96.5862 88.7458 96.5862H88.4077V96.9656H88.275V95.7661H88.7458C89.0625 95.7661 89.2594 95.9212 89.2594 96.1782ZM89.1267 96.1782C89.1267 95.9864 88.9941 95.8763 88.7415 95.8763H88.4077V96.476H88.7415C88.9941 96.476 89.1267 96.3659 89.1267 96.1782Z" fill="#263238"/>
<path d="M90.0383 95.7661H90.5477C90.7145 95.7661 90.8745 95.8293 90.9925 95.9418C91.1105 96.0543 91.1768 96.2068 91.1768 96.3659C91.1768 96.5249 91.1105 96.6775 90.9925 96.79C90.8745 96.9024 90.7145 96.9656 90.5477 96.9656H90.0383V95.7661ZM90.5391 96.8555C90.6753 96.8555 90.8059 96.8039 90.9023 96.7121C90.9986 96.6203 91.0527 96.4957 91.0527 96.3659C91.0527 96.236 90.9986 96.1115 90.9023 96.0197C90.8059 95.9279 90.6753 95.8763 90.5391 95.8763H90.171V96.8555H90.5391Z" fill="#263238"/>
<path d="M92.2083 96.4066V96.9656H92.0842V96.8228C92.0495 96.8737 92.0008 96.9147 91.9435 96.9413C91.8862 96.9679 91.8224 96.9791 91.7589 96.9737C91.5492 96.9737 91.4165 96.8676 91.4165 96.7126C91.4165 96.5576 91.5107 96.4556 91.7803 96.4556H92.0799V96.4025C92.0836 96.369 92.0792 96.3351 92.0669 96.3034C92.0547 96.2717 92.035 96.2432 92.0094 96.2199C91.9837 96.1967 91.9528 96.1793 91.9191 96.1692C91.8853 96.1592 91.8495 96.1566 91.8145 96.1618C91.6991 96.16 91.5867 96.1976 91.4978 96.2679L91.4422 96.1781C91.5516 96.0955 91.6879 96.0522 91.8274 96.0557C91.878 96.0485 91.9297 96.0525 91.9785 96.0674C92.0273 96.0823 92.0718 96.1077 92.1086 96.1416C92.1454 96.1756 92.1736 96.2171 92.1909 96.263C92.2081 96.309 92.2141 96.3581 92.2083 96.4066ZM92.0799 96.6922V96.5453H91.7846C91.6005 96.5453 91.5406 96.6147 91.5406 96.7085C91.5406 96.8024 91.6305 96.8758 91.7803 96.8758C91.8438 96.8801 91.907 96.865 91.9609 96.8327C92.0147 96.8004 92.0564 96.7527 92.0799 96.6963V96.6922Z" fill="#263238"/>
<path d="M93.0515 96.9085C92.997 96.9534 92.9266 96.9768 92.8546 96.9738C92.8175 96.9776 92.7799 96.9734 92.7447 96.9617C92.7094 96.95 92.6773 96.9309 92.6507 96.906C92.6241 96.881 92.6036 96.8507 92.5908 96.8173C92.5779 96.7839 92.573 96.7481 92.5764 96.7127V96.166H92.4095V96.064H92.5764V95.8804H92.7048V96.0762H92.9916V96.1782H92.7048V96.6964C92.7014 96.7178 92.7033 96.7397 92.7101 96.7604C92.717 96.7811 92.7287 96.8001 92.7444 96.8158C92.76 96.8315 92.7793 96.8436 92.8006 96.8512C92.8219 96.8588 92.8448 96.8617 92.8674 96.8596C92.9185 96.8605 92.9684 96.8447 93.0087 96.8147L93.0515 96.9085Z" fill="#263238"/>
<path d="M94.0744 96.5532H93.304C93.3106 96.6413 93.3534 96.7233 93.4232 96.7814C93.4929 96.8394 93.5839 96.8689 93.6763 96.8633C93.731 96.8654 93.7855 96.8559 93.8359 96.8354C93.8862 96.815 93.9312 96.7841 93.9674 96.7449L94.0401 96.8266C93.9935 96.8748 93.9364 96.9129 93.8729 96.9382C93.8094 96.9636 93.7409 96.9756 93.6721 96.9734C93.6072 96.9769 93.5423 96.9674 93.4815 96.9456C93.4207 96.9237 93.3654 96.89 93.3191 96.8466C93.2727 96.8032 93.2364 96.7511 93.2124 96.6935C93.1885 96.636 93.1774 96.5743 93.1799 96.5124C93.1763 96.4532 93.1856 96.394 93.2071 96.3384C93.2286 96.2828 93.2618 96.232 93.3048 96.1891C93.3477 96.1463 93.3994 96.1123 93.4567 96.0893C93.514 96.0663 93.5757 96.0548 93.6378 96.0554C93.7011 96.0507 93.7647 96.0595 93.8239 96.0811C93.8832 96.1027 93.9367 96.1366 93.9805 96.1804C94.0243 96.2241 94.0574 96.2766 94.0774 96.334C94.0973 96.3914 94.1036 96.4524 94.0958 96.5124L94.0744 96.5532ZM93.2826 96.4594H93.9545C93.9452 96.3806 93.9058 96.308 93.8438 96.2552C93.7819 96.2024 93.7017 96.1732 93.6186 96.1732C93.5355 96.1732 93.4553 96.2024 93.3933 96.2552C93.3313 96.308 93.2919 96.3806 93.2826 96.4594Z" fill="#263238"/>
<path d="M109.799 98.0996V100.029H109.594V98.275H109.114V98.0996H109.799Z" fill="#263238"/>
<path d="M111.665 99.8501V100.03H110.244V99.8868L111.1 99.1034C111.327 98.8872 111.374 98.7566 111.374 98.6261C111.374 98.4017 111.207 98.263 110.899 98.263C110.796 98.2566 110.692 98.2728 110.597 98.3103C110.501 98.3478 110.416 98.4055 110.347 98.4792L110.197 98.3568C110.289 98.264 110.401 98.1914 110.525 98.1442C110.649 98.0969 110.783 98.0762 110.916 98.0834C111.344 98.0834 111.588 98.2793 111.588 98.6016C111.582 98.7193 111.548 98.8342 111.491 98.9384C111.433 99.0426 111.352 99.1337 111.254 99.2054L110.565 99.8501H111.665Z" fill="#263238"/>
<path d="M113.266 99.4746C113.266 99.7969 113.018 100.046 112.53 100.046C112.263 100.054 112.003 99.9648 111.802 99.7969L111.905 99.6378C111.988 99.7132 112.086 99.7719 112.193 99.8105C112.301 99.849 112.415 99.8666 112.53 99.8622C112.868 99.8622 113.052 99.7153 113.052 99.4746C113.052 99.2338 112.881 99.091 112.504 99.091H112.359V98.9442L112.919 98.275H111.883V98.0996H113.167V98.2383L112.594 98.9238C113.048 98.9483 113.266 99.1645 113.266 99.4746Z" fill="#263238"/>
<path d="M109.183 96.3659C109.182 96.2838 109.198 96.2024 109.231 96.1265C109.264 96.0506 109.313 95.982 109.374 95.9247C109.436 95.8674 109.509 95.8227 109.59 95.7934C109.67 95.764 109.756 95.7506 109.842 95.7539C109.927 95.7513 110.011 95.7655 110.09 95.7957C110.169 95.8259 110.241 95.8714 110.3 95.9294L110.219 96.011C110.17 95.9644 110.112 95.9277 110.048 95.9031C109.984 95.8786 109.915 95.8667 109.846 95.8682C109.774 95.8619 109.701 95.8701 109.632 95.8921C109.564 95.9142 109.5 95.9497 109.447 95.9963C109.393 96.043 109.35 96.0997 109.321 96.163C109.292 96.2263 109.277 96.2947 109.277 96.3639C109.277 96.433 109.292 96.5014 109.321 96.5647C109.35 96.628 109.393 96.6848 109.447 96.7314C109.5 96.7781 109.564 96.8135 109.632 96.8356C109.701 96.8577 109.774 96.8658 109.846 96.8596C109.915 96.8621 109.984 96.8506 110.048 96.826C110.112 96.8014 110.17 96.7642 110.219 96.7168L110.3 96.7984C110.241 96.8575 110.169 96.9037 110.089 96.934C110.009 96.9643 109.923 96.9779 109.838 96.9738C109.752 96.9772 109.667 96.9639 109.587 96.9347C109.507 96.9055 109.434 96.8612 109.373 96.8043C109.312 96.7474 109.263 96.6791 109.23 96.6038C109.198 96.5284 109.182 96.4475 109.183 96.3659Z" fill="#263238"/>
<path d="M112.299 95.7661L111.871 96.9656H111.729L111.361 95.9416L110.993 96.9656H110.852L110.424 95.7661H110.561L110.925 96.7984L111.301 95.7661H111.426L111.794 96.8024L112.162 95.7661H112.299Z" fill="#263238"/>
<path d="M98.5727 110.397H97.4428L97.1988 110.915H96.9763L97.9007 108.985H98.1147L99.0392 110.915H98.8124L98.5727 110.397ZM98.4914 110.234L98.012 109.198L97.5241 110.234H98.4914Z" fill="#263238"/>
<path d="M99.1633 110.189C99.1596 110.09 99.1775 109.992 99.2157 109.9C99.2538 109.808 99.3115 109.725 99.3851 109.656C99.4587 109.587 99.5466 109.532 99.6432 109.497C99.7399 109.462 99.8431 109.446 99.9466 109.45C100.064 109.444 100.181 109.467 100.285 109.518C100.39 109.569 100.478 109.646 100.541 109.74L100.392 109.838C100.344 109.772 100.28 109.718 100.205 109.68C100.131 109.642 100.048 109.622 99.9637 109.622C99.8059 109.622 99.6546 109.681 99.543 109.788C99.4314 109.894 99.3687 110.038 99.3687 110.189C99.3687 110.339 99.4314 110.483 99.543 110.59C99.6546 110.696 99.8059 110.756 99.9637 110.756C100.048 110.755 100.13 110.736 100.204 110.699C100.279 110.662 100.343 110.609 100.392 110.544L100.541 110.642C100.477 110.735 100.388 110.81 100.284 110.86C100.18 110.91 100.063 110.933 99.9466 110.927C99.8431 110.932 99.7399 110.916 99.6432 110.881C99.5466 110.845 99.4587 110.791 99.3851 110.722C99.3115 110.652 99.2538 110.569 99.2157 110.477C99.1775 110.386 99.1596 110.287 99.1633 110.189Z" fill="#263238"/>
<path d="M101.761 110.825C101.671 110.895 101.557 110.932 101.44 110.927C101.383 110.931 101.326 110.923 101.272 110.903C101.218 110.884 101.17 110.854 101.129 110.816C101.089 110.777 101.057 110.73 101.037 110.679C101.017 110.628 101.008 110.574 101.012 110.519V109.63H100.743V109.462H101.008V109.144H101.213V109.462H101.68V109.63H101.213V110.495C101.208 110.529 101.211 110.565 101.222 110.599C101.234 110.632 101.253 110.663 101.278 110.689C101.304 110.714 101.335 110.734 101.37 110.746C101.405 110.759 101.442 110.763 101.479 110.76C101.561 110.761 101.641 110.735 101.706 110.686L101.761 110.825Z" fill="#263238"/>
<path d="M102.091 109.006C102.091 108.968 102.107 108.931 102.135 108.905C102.163 108.878 102.201 108.863 102.241 108.863C102.28 108.863 102.318 108.878 102.347 108.905C102.375 108.931 102.39 108.968 102.39 109.006C102.39 109.043 102.375 109.08 102.347 109.107C102.318 109.133 102.28 109.148 102.241 109.148C102.201 109.148 102.163 109.133 102.135 109.107C102.107 109.08 102.091 109.043 102.091 109.006ZM102.138 109.463H102.343V110.915H102.138V109.463Z" fill="#263238"/>
<path d="M102.758 110.189C102.758 110.043 102.804 109.9 102.889 109.779C102.974 109.657 103.094 109.563 103.236 109.507C103.377 109.451 103.533 109.436 103.683 109.464C103.833 109.492 103.971 109.562 104.079 109.665C104.188 109.768 104.262 109.899 104.292 110.042C104.323 110.185 104.308 110.333 104.25 110.468C104.192 110.603 104.094 110.719 103.967 110.801C103.84 110.882 103.69 110.926 103.537 110.927C103.435 110.931 103.332 110.914 103.236 110.878C103.14 110.842 103.053 110.788 102.98 110.719C102.907 110.649 102.85 110.567 102.812 110.476C102.774 110.384 102.756 110.287 102.758 110.189ZM104.098 110.189C104.092 110.083 104.054 109.982 103.988 109.897C103.923 109.812 103.832 109.748 103.728 109.712C103.625 109.675 103.512 109.669 103.404 109.693C103.297 109.717 103.199 109.771 103.123 109.848C103.047 109.925 102.996 110.021 102.977 110.125C102.958 110.229 102.972 110.336 103.016 110.432C103.06 110.529 103.133 110.611 103.226 110.669C103.318 110.726 103.427 110.756 103.537 110.756C103.614 110.757 103.69 110.742 103.761 110.713C103.832 110.685 103.895 110.642 103.948 110.589C104.001 110.536 104.041 110.473 104.067 110.404C104.093 110.335 104.103 110.262 104.098 110.189Z" fill="#263238"/>
<path d="M106.144 110.074V110.915H105.939V110.099C105.947 110.039 105.941 109.977 105.922 109.919C105.902 109.861 105.869 109.808 105.825 109.764C105.781 109.72 105.728 109.686 105.668 109.664C105.608 109.642 105.544 109.633 105.481 109.638C105.408 109.633 105.335 109.643 105.267 109.667C105.199 109.692 105.138 109.731 105.087 109.781C105.036 109.83 104.998 109.89 104.974 109.956C104.95 110.021 104.942 110.091 104.95 110.16V110.923H104.744V109.471H104.941V109.752C105.003 109.661 105.089 109.587 105.19 109.537C105.292 109.488 105.405 109.465 105.519 109.471C105.603 109.465 105.688 109.477 105.767 109.505C105.846 109.534 105.918 109.578 105.977 109.636C106.036 109.693 106.082 109.762 106.111 109.838C106.14 109.913 106.151 109.994 106.144 110.074Z" fill="#263238"/>
<path d="M107.702 109.16V109.919H108.746V110.095H107.702V110.911H107.488V108.981H108.875V109.156L107.702 109.16Z" fill="#263238"/>
<path d="M109.2 109.006C109.2 108.968 109.216 108.931 109.244 108.905C109.272 108.878 109.31 108.863 109.35 108.863C109.389 108.863 109.428 108.878 109.456 108.905C109.484 108.931 109.5 108.968 109.5 109.006C109.5 109.043 109.484 109.08 109.456 109.107C109.428 109.133 109.389 109.148 109.35 109.148C109.31 109.148 109.272 109.133 109.244 109.107C109.216 109.08 109.2 109.043 109.2 109.006ZM109.243 109.463H109.448V110.915H109.243V109.463Z" fill="#263238"/>
<path d="M111.43 109.462V110.739C111.446 110.838 111.437 110.938 111.405 111.033C111.373 111.128 111.317 111.214 111.243 111.284C111.17 111.354 111.079 111.407 110.98 111.438C110.881 111.469 110.775 111.477 110.672 111.462C110.415 111.472 110.163 111.394 109.962 111.241L110.064 111.09C110.233 111.223 110.445 111.294 110.664 111.29C111.049 111.29 111.224 111.119 111.224 110.764V110.568C111.16 110.659 111.071 110.733 110.968 110.783C110.864 110.832 110.749 110.855 110.634 110.85C110.532 110.857 110.43 110.844 110.334 110.812C110.237 110.78 110.149 110.73 110.074 110.664C109.999 110.597 109.94 110.517 109.899 110.428C109.858 110.339 109.837 110.243 109.837 110.146C109.837 110.049 109.858 109.952 109.899 109.863C109.94 109.774 109.999 109.694 110.074 109.628C110.149 109.562 110.237 109.511 110.334 109.479C110.43 109.447 110.532 109.435 110.634 109.442C110.751 109.438 110.868 109.462 110.973 109.512C111.078 109.563 111.167 109.639 111.233 109.732V109.454L111.43 109.462ZM111.233 110.152C111.236 110.042 111.205 109.934 111.144 109.842C111.083 109.749 110.994 109.676 110.888 109.632C110.783 109.587 110.666 109.574 110.553 109.593C110.44 109.613 110.336 109.664 110.253 109.74C110.17 109.817 110.114 109.915 110.09 110.022C110.066 110.129 110.077 110.241 110.12 110.342C110.163 110.444 110.237 110.531 110.332 110.592C110.428 110.654 110.54 110.686 110.655 110.686C110.73 110.691 110.805 110.681 110.876 110.656C110.946 110.632 111.011 110.593 111.065 110.544C111.119 110.494 111.162 110.435 111.191 110.369C111.22 110.303 111.234 110.232 111.233 110.16V110.152Z" fill="#263238"/>
<path d="M113.377 109.462V110.915H113.18V110.65C113.124 110.738 113.043 110.811 112.946 110.86C112.85 110.909 112.742 110.932 112.632 110.927C112.545 110.935 112.457 110.924 112.374 110.895C112.292 110.866 112.217 110.82 112.156 110.761C112.094 110.701 112.047 110.629 112.019 110.549C111.99 110.47 111.981 110.386 111.99 110.303V109.462H112.196V110.278C112.187 110.339 112.192 110.401 112.211 110.459C112.231 110.518 112.263 110.571 112.307 110.616C112.351 110.661 112.405 110.695 112.465 110.717C112.525 110.739 112.59 110.748 112.654 110.743C112.726 110.747 112.798 110.735 112.864 110.71C112.931 110.684 112.991 110.645 113.041 110.594C113.09 110.544 113.127 110.485 113.15 110.42C113.172 110.354 113.18 110.285 113.172 110.217V109.454L113.377 109.462Z" fill="#263238"/>
<path d="M114.704 109.45V109.642H114.653C114.58 109.639 114.507 109.651 114.44 109.678C114.373 109.705 114.312 109.745 114.263 109.797C114.214 109.848 114.178 109.909 114.156 109.975C114.135 110.042 114.129 110.112 114.139 110.181V110.919H113.934V109.467H114.13V109.752C114.184 109.653 114.267 109.572 114.369 109.518C114.471 109.464 114.588 109.441 114.704 109.45Z" fill="#263238"/>
<path d="M116.416 110.25H115.132C115.136 110.321 115.155 110.39 115.188 110.454C115.22 110.518 115.266 110.575 115.321 110.622C115.377 110.669 115.442 110.705 115.512 110.728C115.583 110.751 115.657 110.76 115.731 110.756C115.819 110.758 115.906 110.742 115.987 110.709C116.067 110.676 116.139 110.627 116.198 110.564L116.313 110.691C116.204 110.8 116.063 110.876 115.909 110.91C115.755 110.943 115.593 110.932 115.445 110.879C115.297 110.825 115.169 110.731 115.077 110.608C114.984 110.486 114.932 110.34 114.927 110.189C114.921 110.093 114.937 109.997 114.972 109.907C115.007 109.817 115.061 109.735 115.131 109.666C115.201 109.596 115.285 109.542 115.378 109.505C115.471 109.468 115.571 109.449 115.671 109.45C115.772 109.448 115.872 109.466 115.964 109.503C116.057 109.54 116.141 109.595 116.21 109.665C116.28 109.734 116.333 109.817 116.367 109.907C116.401 109.997 116.415 110.093 116.407 110.189C116.407 110.189 116.416 110.226 116.416 110.25ZM115.132 110.103H116.211C116.211 109.967 116.154 109.836 116.053 109.74C115.951 109.643 115.814 109.589 115.671 109.589C115.528 109.589 115.391 109.643 115.29 109.74C115.189 109.836 115.132 109.967 115.132 110.103Z" fill="#263238"/>
<path d="M99.48 118.655V119.503H98.6882V118.687C97.9809 118.666 97.294 118.456 96.7066 118.079L97.1346 117.157C97.5918 117.462 98.1243 117.647 98.6797 117.696V116.431C97.7937 116.223 96.8093 115.945 96.8093 114.86C96.8093 114.044 97.4214 113.367 98.6797 113.228V112.388H99.4715V113.204C100.04 113.234 100.594 113.394 101.085 113.669L100.687 114.599C100.314 114.388 99.9009 114.249 99.4715 114.191V115.48C100.353 115.676 101.325 115.958 101.325 117.027C101.333 117.83 100.73 118.512 99.48 118.655ZM98.6882 115.309V114.24C98.2602 114.33 98.0976 114.55 98.0976 114.799C98.0976 115.048 98.3373 115.203 98.6882 115.309ZM100.054 117.133C100.054 116.868 99.8224 116.725 99.48 116.61V117.655C99.8781 117.573 100.054 117.378 100.054 117.133Z" fill="#263238"/>
<path d="M106.02 117.594V118.598H101.817V117.802L103.957 115.868C104.453 115.419 104.539 115.15 104.539 114.889C104.539 114.481 104.235 114.232 103.649 114.232C103.426 114.224 103.204 114.268 103.004 114.36C102.803 114.453 102.629 114.591 102.497 114.762L101.56 114.187C101.814 113.861 102.148 113.6 102.534 113.427C102.919 113.255 103.343 113.177 103.769 113.2C105.01 113.2 105.836 113.808 105.836 114.77C105.836 115.285 105.682 115.754 104.903 116.443L103.619 117.594H106.02Z" fill="#263238"/>
<path d="M106.538 115.946C106.538 114.195 107.556 113.2 108.922 113.2C110.287 113.2 111.306 114.195 111.306 115.946C111.306 117.696 110.296 118.687 108.922 118.687C107.548 118.687 106.538 117.696 106.538 115.946ZM110.013 115.946C110.013 114.722 109.585 114.24 108.922 114.24C108.258 114.24 107.843 114.738 107.843 115.946C107.843 117.153 108.271 117.647 108.922 117.647C109.572 117.647 109.996 117.149 109.996 115.946H110.013Z" fill="#263238"/>
<path d="M111.935 115.946C111.935 114.195 112.953 113.2 114.319 113.2C115.684 113.2 116.703 114.195 116.703 115.946C116.703 117.696 115.693 118.687 114.319 118.687C112.945 118.687 111.935 117.696 111.935 115.946ZM115.406 115.946C115.406 114.722 114.978 114.24 114.319 114.24C113.66 114.24 113.236 114.738 113.236 115.946C113.236 117.153 113.664 117.647 114.319 117.647C114.974 117.647 115.406 117.149 115.406 115.946Z" fill="#263238"/>
<path d="M115.624 132.102H97.8793C96.7786 132.101 95.7233 131.684 94.9449 130.942C94.1666 130.2 93.7289 129.194 93.7277 128.145C93.7277 127.095 94.165 126.088 94.9434 125.345C95.7219 124.602 96.7779 124.184 97.8793 124.183H115.624C116.17 124.183 116.71 124.286 117.214 124.485C117.718 124.684 118.176 124.976 118.561 125.344C118.947 125.712 119.253 126.148 119.461 126.629C119.669 127.11 119.776 127.625 119.776 128.145C119.776 129.194 119.338 130.201 118.56 130.943C117.781 131.685 116.725 132.102 115.624 132.102Z" fill="#263238"/>
<path d="M101.059 127.704C101.059 128.202 100.683 128.5 100.062 128.5H99.403V129.234H99.1462V126.909H100.062C100.683 126.925 101.059 127.223 101.059 127.704ZM100.798 127.704C100.798 127.333 100.541 127.121 100.054 127.121H99.403V128.284H100.054C100.541 128.3 100.798 128.088 100.798 127.704Z" fill="white"/>
<path d="M102.93 128.165V129.25H102.694V128.977C102.625 129.075 102.53 129.153 102.419 129.204C102.308 129.255 102.184 129.277 102.061 129.267C101.633 129.267 101.393 129.063 101.393 128.757C101.393 128.451 101.573 128.263 102.099 128.263H102.681V128.157C102.681 127.859 102.506 127.696 102.164 127.696C101.941 127.693 101.724 127.765 101.552 127.9L101.44 127.724C101.653 127.565 101.918 127.481 102.189 127.488C102.287 127.474 102.387 127.482 102.481 127.511C102.576 127.54 102.662 127.589 102.733 127.654C102.804 127.719 102.859 127.799 102.893 127.888C102.927 127.977 102.94 128.071 102.93 128.165ZM102.681 128.724V128.438H102.108C101.753 128.438 101.637 128.573 101.637 128.753C101.637 128.932 101.808 129.083 102.099 129.083C102.224 129.091 102.348 129.06 102.453 128.995C102.557 128.931 102.638 128.836 102.681 128.724Z" fill="white"/>
<path d="M105.108 127.5L104.192 129.459C104.038 129.801 103.846 129.912 103.585 129.912C103.422 129.911 103.266 129.851 103.148 129.744L103.264 129.569C103.307 129.612 103.359 129.646 103.416 129.669C103.473 129.692 103.535 129.704 103.597 129.704C103.764 129.704 103.876 129.63 103.978 129.41L104.06 129.238L103.238 127.492H103.499L104.188 128.981L104.86 127.5H105.108Z" fill="white"/>
<path d="M107.201 129.267V129.65H107.026V129.271C106.719 129.269 106.422 129.161 106.191 128.969L106.294 128.777C106.496 128.949 106.755 129.049 107.026 129.059V128.185C106.64 128.096 106.251 127.981 106.251 127.541C106.251 127.223 106.491 126.945 107.026 126.908V126.525H107.201V126.888C107.452 126.892 107.696 126.963 107.907 127.092L107.822 127.288C107.635 127.176 107.421 127.11 107.201 127.096V127.977C107.595 128.067 108.01 128.173 108.01 128.618C108.01 128.957 107.753 129.238 107.201 129.267ZM107.026 127.953V127.137C106.666 127.165 106.504 127.341 106.504 127.545C106.504 127.749 106.739 127.879 107.026 127.953ZM107.753 128.651C107.753 128.385 107.501 128.296 107.201 128.243V129.059C107.582 129.03 107.753 128.863 107.753 128.651Z" fill="white"/>
<path d="M110.022 129.038V129.25H108.31V129.083L109.324 128.132C109.598 127.875 109.649 127.724 109.649 127.557C109.649 127.288 109.452 127.125 109.08 127.125C108.956 127.119 108.832 127.139 108.717 127.183C108.601 127.227 108.497 127.295 108.412 127.382L108.233 127.235C108.342 127.124 108.475 127.038 108.623 126.981C108.771 126.924 108.929 126.898 109.089 126.904C109.581 126.904 109.898 127.145 109.898 127.533C109.891 127.675 109.852 127.814 109.783 127.939C109.713 128.065 109.615 128.174 109.495 128.259L108.665 129.038H110.022Z" fill="white"/>
<path d="M110.321 128.087C110.321 127.345 110.728 126.904 111.293 126.904C111.858 126.904 112.269 127.345 112.269 128.087C112.269 128.83 111.841 129.271 111.293 129.271C110.745 129.271 110.321 128.83 110.321 128.087ZM112.012 128.087C112.012 127.467 111.721 127.125 111.293 127.125C110.865 127.125 110.574 127.467 110.574 128.087C110.574 128.708 110.869 129.05 111.293 129.05C111.717 129.05 112.012 128.708 112.012 128.087Z" fill="white"/>
<path d="M112.628 128.087C112.628 127.345 113.056 126.904 113.604 126.904C114.152 126.904 114.58 127.345 114.58 128.087C114.58 128.83 114.152 129.271 113.604 129.271C113.056 129.271 112.628 128.83 112.628 128.087ZM114.34 128.087C114.34 127.467 114.049 127.125 113.625 127.125C113.202 127.125 112.906 127.467 112.906 128.087C112.906 128.708 113.197 129.05 113.625 129.05C114.053 129.05 114.319 128.708 114.319 128.087H114.34Z" fill="white"/>
<path d="M79.9033 119.642C80.5453 129.046 75.9743 139.52 75.9743 139.52L51.283 132.894L46.9773 131.735C51.2573 126.068 53.2946 114.905 52.1775 105.872C52.0919 105.19 52.0405 104.55 52.002 103.938C51.574 96.4878 54.8225 94.3091 57.566 91.0166C60.562 87.4506 67.2303 73.9866 67.2303 70.8002C67.2303 67.6137 75.5977 59.8127 73.7359 50.9591C73.7359 50.9591 76.2653 49.4618 78.8077 50.6898C79.9633 51.2447 81.1146 52.3586 82.0433 54.423C84.2219 59.2742 81.1617 72.987 78.5594 76.349L73.5475 96.1288C73.5475 96.1288 75.2381 98.9073 76.8988 103.95C78.5495 109.049 79.5581 114.316 79.9033 119.642Z" fill="white"/>
<path opacity="0.4" d="M52.002 103.938C53.4016 107.59 54.8867 110.058 54.7583 115.174C54.6299 120.291 51.7623 128.165 52.5798 132.257C52.1128 132.389 51.6768 132.605 51.2958 132.894L46.9901 131.735C51.2701 126.068 53.3074 114.905 52.1903 105.872C52.0919 105.191 52.0405 104.55 52.002 103.938Z" fill="#90CAF9"/>
<path opacity="0.4" d="M78.5594 76.3491L73.5475 96.1289C73.5475 96.1289 75.2381 98.9074 76.8988 103.95C73.5047 98.736 70.62 97.1775 70.62 97.1775C72.8798 94.5948 74.6218 75.7044 74.6218 75.7044C74.6218 75.7044 81.7052 67.7688 81.0418 59.466C80.8289 56.4404 80.0732 53.472 78.8076 50.6899C79.9632 51.2448 81.1146 52.3587 82.0433 54.4231C84.2218 59.2743 81.1616 72.9871 78.5594 76.3491Z" fill="#90CAF9"/>
<path d="M46.9773 131.735C51.2573 126.068 53.2946 114.905 52.1818 105.872C51.069 96.8392 54.5957 94.5789 57.5703 91.0129C60.5449 87.447 67.2303 73.9871 67.2303 70.7965C67.2303 67.606 75.5934 59.8173 73.7359 50.9596C73.7359 50.9596 79.073 47.8057 82.0433 54.4235C84.2219 59.2787 81.1617 72.9875 78.5594 76.3535L73.5518 96.1293C73.5518 96.1293 78.8975 104.922 79.9033 119.642C80.5453 129.047 75.9743 139.524 75.9743 139.524" stroke="#263238" stroke-linecap="round" stroke-linejoin="round"/>
<path d="M63.481 147.047C63.481 147.047 69.1006 150.344 72.3791 155.558" stroke="#263238" stroke-linecap="round" stroke-linejoin="round"/>
<path d="M79.2656 153.286C79.2656 153.286 74.4249 153.943 70.0508 148.953C67.2474 145.758 58.7345 144.314 56.7828 135.958" stroke="#263238" stroke-linecap="round" stroke-linejoin="round"/>
<path opacity="0.2" d="M149.62 177.994C137.23 172.343 144.732 167.814 127.685 160.801C110.638 153.787 110.467 147.794 112.521 134.012C114.576 120.229 112.949 105.57 117.905 104.325C122.862 103.081 114.028 84.0723 119.806 77.3525L148.242 130.082L149.62 177.994Z" fill="black" fill-opacity="0.7"/>
<path d="M195.789 177.443C195.207 175.856 194.616 174.122 194.158 172.547C193.567 170.507 193.105 168.875 192.018 166.978C191.847 166.676 191.663 166.358 191.457 166.015C190.297 164.044 188.709 161.347 187.781 158.035C187.156 155.803 187.781 150.307 188.363 144.979C188.791 141.151 189.18 137.541 189.065 135.493L189.03 134.766C188.739 129.409 188.132 118.263 186.89 115.182C185.671 112.212 184.532 111.767 182.456 110.976C182.242 110.886 182.028 110.804 181.78 110.707C181.001 110.396 179.674 109.744 178.146 108.989C174.701 107.288 170.412 105.17 168.234 104.909C166.196 104.691 164.135 104.781 162.126 105.178C159.443 103.216 154.876 100.69 153.515 100.637C152.402 100.584 149.971 101.249 148.807 101.596L148.221 101.775C147.484 101.23 146.702 100.742 145.884 100.315C145.828 100.286 145.773 100.266 145.725 100.245C144.215 99.6538 141.933 99.6334 140.688 99.6661C140.311 99.6661 140.016 99.7028 139.883 99.715C137.534 96.2674 135.222 92.8361 134.217 91.3306C132.119 88.1645 125.627 75.1371 125.562 75.0106C125.555 74.9938 125.543 74.9791 125.528 74.9677C125.513 74.9563 125.496 74.9486 125.477 74.9453C125.457 74.9427 125.437 74.9427 125.417 74.9453C124.912 74.8066 121.192 73.9049 119.699 77.3403C118.064 81.0817 120.396 89.2947 122.673 92.2772C123.769 93.7133 126.761 99.5722 129.795 105.635C129.016 106.325 122.785 111.812 119.759 112.836C117.281 113.673 117.863 125.782 118.329 135.505C118.505 139.095 118.65 142.184 118.607 144.04C118.522 147.631 125.374 152.575 132.017 157.357C138.009 161.69 144.223 166.166 144.951 169.418C145.152 170.332 145.725 171.074 146.41 171.911C147.553 173.298 149.025 174.934 149.65 178.031C149.834 178.961 151.401 180.177 152.646 182.164H197.603C197.227 181.197 196.516 179.434 195.789 177.443ZM133.442 112.938C135.62 117.288 136.969 119.874 137.294 120.164C137.619 120.454 137.598 121.833 137.589 123.175C137.542 124.35 137.585 125.527 137.718 126.696C137.187 127.141 133.836 130.05 133.159 132.408L130.313 129.213L129.594 119.189C130.022 118.756 132.95 115.807 133.442 112.938Z" fill="white"/>
<path opacity="0.4" d="M182.889 140.886C183.946 150.291 183.959 155.391 185.144 158.112C187.147 162.706 190.096 163.636 190.096 163.636C189.115 161.856 188.336 159.981 187.772 158.043C187.152 155.811 187.772 150.315 188.354 144.987C188.782 141.16 189.176 137.545 189.065 135.497L189.026 134.77C188.735 129.417 188.127 118.271 186.886 115.186C185.671 112.216 184.528 111.771 182.452 110.976C182.238 110.89 182.024 110.808 181.776 110.711C180.997 110.4 179.674 109.748 178.142 108.993C174.697 107.291 170.408 105.174 168.23 104.913C166.192 104.692 164.13 104.783 162.122 105.182C159.439 103.22 154.872 100.694 153.511 100.641C152.398 100.588 149.381 101.424 148.208 101.779C153.344 105.774 160.74 110.755 160.74 110.755C166.59 111.865 165.841 114.285 168.208 115.651C170.348 116.875 172.394 113.293 174.2 112.979C176.563 112.571 179.246 114.946 179.127 117.826C178.758 125.762 181.981 132.812 182.889 140.886Z" fill="#90CAF9"/>
<path opacity="0.4" d="M153.314 111.743C153.314 111.743 148.679 108.071 146.466 106.847C144.253 105.623 143.898 101.404 145.644 100.38C145.71 100.342 145.785 100.32 145.862 100.315L145.704 100.246C144.193 99.654 141.912 99.6295 140.667 99.6662C143.235 104.224 145.285 107.72 145.837 108.487C147.699 111.049 153.314 111.743 153.314 111.743Z" fill="#90CAF9"/>
<path opacity="0.4" d="M146.282 168.847C146.479 167.871 144.792 165.015 144.052 163.857C142.37 161.213 122.84 144.762 125.669 140.372C128.498 135.982 131.084 139.23 132.873 139.515C134.157 139.719 137.683 137.716 137.666 137.549C137.264 134.167 140.538 131.967 140.538 131.967C140.538 131.967 140.238 118.503 139.485 118.732C138.732 118.96 129.718 98.5156 129.718 98.5156C129.718 98.5156 120.191 86.4388 120.73 80.8043C121.27 75.1698 125.404 75.0719 125.404 75.0719V74.9209C124.899 74.7822 121.18 73.8805 119.686 77.3159C118.051 81.0572 120.384 89.2703 122.661 92.2528C123.756 93.6889 126.748 99.5478 129.782 105.611C129.004 106.3 122.772 111.788 119.746 112.812C117.268 113.648 117.85 125.758 118.316 135.48C118.492 139.071 118.637 142.159 118.595 144.016C118.509 147.606 125.361 152.551 132.004 157.333C137.996 161.666 144.21 166.142 144.938 169.393C145.139 170.307 145.713 171.05 146.397 171.886C146.261 170.879 146.222 169.861 146.282 168.847ZM133.442 112.951C135.62 117.3 136.969 119.887 137.294 120.176C137.619 120.466 137.598 121.845 137.589 123.187C137.542 124.362 137.585 125.539 137.718 126.708C137.187 127.153 133.836 130.062 133.159 132.42L130.313 129.226L129.594 119.201C130.022 118.756 132.95 115.807 133.442 112.938V112.951Z" fill="#90CAF9"/>
<path d="M150.656 111.69C148.743 111.116 147.063 109.993 145.845 108.475C143.889 105.978 136.207 94.6029 134.08 91.396C131.952 88.1892 125.404 75.072 125.404 75.072C125.404 75.072 121.381 73.7868 119.814 77.369C118.248 80.9512 120.392 89.046 122.776 92.1631C125.16 95.2802 136.489 119.283 137.388 120.058C138.287 120.833 136.939 127.239 138.741 128.789" stroke="#263238" stroke-linecap="round" stroke-linejoin="round"/>
<path d="M137.876 126.753C137.876 126.753 133.724 130.201 133.236 132.718L130.155 129.262L129.427 119.136C129.427 119.136 133.147 115.586 133.352 112.428" stroke="#263238" stroke-linecap="round" stroke-linejoin="round"/>
<path d="M129.954 105.623C129.954 105.623 123.059 111.825 119.78 112.93C116.502 114.036 118.894 137.272 118.731 144C118.569 150.727 143.534 162.449 145.066 169.336C145.674 172.078 148.191 172.637 149.727 177.904" stroke="#263238" stroke-linecap="round" stroke-linejoin="round"/>
<path d="M139.768 99.8498C139.768 99.8498 143.521 99.5275 145.636 100.368C147.75 101.208 156.336 108.238 158.407 109.581C160.479 110.923 163.594 111.433 164.185 112.881" stroke="#263238" stroke-linecap="round" stroke-linejoin="round"/>
<path d="M148.161 101.922C148.161 101.922 152.013 100.698 153.485 100.767C154.957 100.837 160.496 103.95 162.978 106.031C164.88 107.639 167.071 108.908 169.445 109.776" stroke="#263238" stroke-linecap="round" stroke-linejoin="round"/>
<path d="M162.075 105.325C164.085 104.912 166.153 104.817 168.195 105.043C171.328 105.451 179.195 109.858 181.703 110.853C184.211 111.849 185.41 112.032 186.728 115.247C188.046 118.462 188.65 130.686 188.915 135.517C189.18 140.348 186.54 154.183 187.631 158.075C188.722 161.968 190.691 164.97 191.885 167.051" stroke="#263238" stroke-linecap="round" stroke-linejoin="round"/>
<path d="M129.427 119.136C129.427 119.136 128.828 116.749 127.972 116.443" stroke="#263238" stroke-linecap="round" stroke-linejoin="round"/>
<path d="M130.155 129.262C130.443 130.653 130.834 132.023 131.323 133.363C131.94 134.811 130.981 136.908 130.981 136.908" stroke="#263238" stroke-linecap="round" stroke-linejoin="round"/>
<path d="M133.236 132.718C133.138 135.036 135.556 137.745 136.143 137.361" stroke="#263238" stroke-linecap="round" stroke-linejoin="round"/>
<path d="M145.55 119.136C145.55 119.136 148.148 115.129 150.639 114.933C153.13 114.737 156.006 118.108 157.543 117.789C159.079 117.471 161.014 115.317 163.599 114.933C166.184 114.55 167.395 115.725 169.445 115.823C171.495 115.921 171.705 113.309 174.153 112.967C176.601 112.624 177.436 113.783 179.08 114.085C180.723 114.387 181.134 113.15 182.465 112.453" stroke="#263238" stroke-linecap="round" stroke-linejoin="round"/>
</svg>
