<?xml version="1.0" encoding="UTF-8"?>
<svg enable-background="new 0 0 122.88 38.52" version="1.1" viewBox="0 0 122.88 38.52" xml:space="preserve" xmlns="http://www.w3.org/2000/svg"><style type="text/css"><![CDATA[
	.st0{fill:#20336B;}
	.st1{fill:#00BAF2;}
]]></style><path class="st1" d="m122.47 11.36c-1.12-3.19-4.16-5.48-7.72-5.48h-0.08c-2.32 0-4.41 0.97-5.9 2.52-1.49-1.55-3.58-2.52-5.9-2.52h-0.07c-2.04 0-3.91 0.75-5.34 1.98v-0.62c-0.05-0.63-0.56-1.12-1.2-1.12h-5.48c-0.67 0-1.21 0.54-1.21 1.21v29.74c0 0.67 0.54 1.21 1.21 1.21h5.48c0.61 0 1.12-0.46 1.19-1.04v-21.35c0-0.08 0-0.14 0.01-0.21 0.09-0.95 0.79-1.74 1.89-1.83h1.01c0.46 0.04 0.85 0.2 1.15 0.45 0.48 0.38 0.74 0.96 0.74 1.6l0.02 21.24c0 0.67 0.54 1.22 1.21 1.22h5.48c0.65 0 1.17-0.51 1.2-1.15v-21.33c0-0.7 0.32-1.34 0.89-1.71 0.28-0.18 0.62-0.3 1.01-0.34h1.01c1.19 0.1 1.9 1 1.9 2.05l0.02 21.22c0 0.67 0.54 1.21 1.21 1.21h5.48c0.64 0 1.17-0.5 1.21-1.13v-23.27c-0.03-1.31-0.2-1.92-0.42-2.55zm-37.08-5.16h-3.13v-5.08-0.02c0-0.6-0.49-1.1-1.11-1.1-0.07 0-0.14 0.01-0.21 0.02-3.47 0.95-2.78 5.76-9.12 6.17h-0.61c-0.09 0-0.18 0.01-0.27 0.03h-0.01 0.01c-0.53 0.13-0.94 0.61-0.94 1.19v5.48c0 0.67 0.54 1.21 1.21 1.21h3.3l-0.01 23.22c0 0.66 0.54 1.2 1.2 1.2h5.42c0.66 0 1.2-0.54 1.2-1.2v-23.22h3.07c0.66 0 1.21-0.55 1.21-1.21v-5.48c0-0.67-0.54-1.21-1.21-1.21z"/><path class="st0" d="m65.69 6.2h-5.48c-0.66 0-1.21 0.54-1.21 1.21v11.33c-0.01 0.7-0.58 1.26-1.28 1.26h-2.29c-0.71 0-1.29-0.57-1.29-1.28l-0.02-11.31c0-0.67-0.54-1.21-1.21-1.21h-5.48c-0.67 0-1.21 0.54-1.21 1.21v12.41c0 4.71 3.36 8.08 8.08 8.08 0 0 3.54 0 3.65 0.02 0.64 0.07 1.13 0.61 1.13 1.27 0 0.65-0.48 1.19-1.12 1.27-0.03 0-0.06 0.01-0.09 0.02l-8.01 0.03c-0.67 0-1.21 0.54-1.21 1.21v5.47c0 0.67 0.54 1.21 1.21 1.21h8.95c4.72 0 8.08-3.36 8.08-8.07v-22.92c0.01-0.67-0.53-1.21-1.2-1.21zm-31.16 0.03h-7.6c-0.67 0-1.22 0.51-1.22 1.13v2.13 0.04 0.05 2.92c0 0.66 0.58 1.21 1.29 1.21h7.24c0.57 0.09 1.02 0.51 1.09 1.16v0.71c-0.06 0.62-0.51 1.07-1.06 1.12h-3.58c-4.77 0-8.16 3.17-8.16 7.61v6.37c0 4.42 2.92 7.56 7.65 7.56h9.93c1.78 0 3.23-1.35 3.23-3.01v-20.78c0-5.04-2.6-8.22-8.81-8.22zm0.87 22.86v0.86c0 0.07-0.01 0.14-0.02 0.2s-0.03 0.12-0.05 0.18c-0.17 0.48-0.65 0.83-1.22 0.83h-2.28c-0.71 0-1.29-0.54-1.29-1.21v-1.03-0.04-2.75-0.86-0.01c0-0.66 0.58-1.2 1.29-1.2h2.28c0.71 0 1.29 0.54 1.29 1.21v3.82zm-22.24-22.9h-11.97c-0.66 0-1.19 0.54-1.19 1.19v5.37 0.03 0.07 24.29c0 0.66 0.49 1.2 1.11 1.21h5.58c0.67 0 1.21-0.54 1.21-1.21l0.02-8.32h5.24c4.38 0 7.44-3.04 7.44-7.45v-7.72c0-4.4-3.06-7.46-7.44-7.46zm-0.48 10.04v3.38c0 0.71-0.57 1.29-1.28 1.29h-3.47v-6.77h3.47c0.71 0 1.28 0.57 1.28 1.28v0.82z"/></svg>
