<svg width="59" height="27" viewBox="0 0 59 27" fill="none" xmlns="http://www.w3.org/2000/svg">
<path d="M40.6353 9.10938H24.1814H23.7595H18.6967H17.8529H1.8209C0.892731 9.10938 0 9.85469 0 10.7656V24.8438C0 25.7547 0.892731 26.5 1.8209 26.5H18.6967C19.6249 26.5 20.3843 25.7547 20.3843 24.8438H22.0719C22.0719 25.7547 22.8317 26.5 23.7595 26.5H40.6353C41.5639 26.5 42.19 25.7547 42.19 24.8438V10.7656C42.19 9.85469 41.5639 9.10938 40.6353 9.10938Z" fill="#CCB985"/>
<path d="M23.756 25.6732C23.2907 25.673 22.7795 25.3014 22.7797 24.8447L22.7801 24.0165L19.4049 24.015L19.4045 24.8432C19.4043 25.2999 19.159 25.6712 18.6937 25.671L1.81785 25.6634C1.3525 25.6632 0.840911 25.2916 0.841115 24.8349L0.847408 10.7567C0.847612 10.3 1.35954 9.92885 1.82489 9.92906L40.6393 9.94641C41.1051 9.94661 41.35 10.3181 41.3498 10.7748L41.3435 24.853C41.3433 25.3097 41.098 25.681 40.6323 25.6808L23.756 25.6732Z" fill="#E6D3A1"/>
<path d="M37.971 10.7656H4.21936V11.5938H37.971V10.7656Z" fill="#BFAF86"/>
<path d="M35.4397 0H10.1259V11.5938H35.4397V0Z" fill="#238C7C"/>
<path d="M34.5959 11.5938V2.33945C34.174 2.08977 33.4437 1.53286 33.1889 0.828125H12.6438C12.3894 1.53286 11.8135 2.0906 10.9697 2.33945V11.5938H34.5959Z" fill="#A3CCC5"/>
<path d="M33.3302 2.07031H8.01648V11.5938H33.3302V2.07031Z" fill="#238C7C"/>
<path d="M32.4864 11.5938V4.40977C32.0645 4.16009 31.3342 3.60317 31.0794 2.89844H10.5343C10.2799 3.60317 9.70402 4.16091 8.86023 4.40977V11.5938H32.4864Z" fill="#A3CCC5"/>
<path d="M31.2207 4.55469H5.90698V11.5938H31.2207V4.55469Z" fill="#238C7C"/>
<path d="M30.3769 11.5938V6.89414C29.955 6.64446 29.2247 6.08755 28.9699 5.38281H8.42482C8.17041 6.08755 7.59452 6.64529 6.75073 6.89414V11.5938H30.3769Z" fill="#A3CCC5"/>
<path d="M8.99353 11.5938C8.99353 10.9081 9.56014 10.3516 10.2592 10.3516C10.9583 10.3516 11.5249 10.9081 11.5249 11.5938H8.99353Z" fill="#238C7C"/>
<path d="M25.869 11.5938C25.869 10.9081 26.436 10.3516 27.1346 10.3516C27.8341 10.3516 28.4003 10.9081 28.4003 11.5938H25.869Z" fill="#238C7C"/>
<path d="M14.4782 11.5938C14.4782 9.3073 16.367 7.45312 18.6972 7.45312C21.0273 7.45312 22.9161 9.3073 22.9161 11.5938H14.4782Z" fill="#238C7C"/>
<path d="M17.72 13.6641H2.5318V24.4297H17.72V13.6641Z" fill="#F5F5F5"/>
<path d="M3.93079 22.3594H8.99354C8.99354 21.1056 8.29656 20.0398 7.32241 19.6365C7.8156 19.3475 8.14974 18.8237 8.14974 18.2188C8.14974 17.3041 7.39413 16.5625 6.46216 16.5625C5.53019 16.5625 4.77458 17.3041 4.77458 18.2188C4.77458 18.8237 5.10872 19.3475 5.60192 19.6365C4.62818 20.0398 3.93079 21.1056 3.93079 22.3594Z" fill="#B3B3B3"/>
<path d="M13.0792 19.0469H10.5478V19.875H13.0792V19.0469Z" fill="#B3B3B3"/>
<path d="M15.1886 20.7031H10.5478V21.5312H15.1886V20.7031Z" fill="#B3B3B3"/>
<path d="M39.6565 16.9766H25.3121V17.8047H39.6565V16.9766Z" fill="#BFAF86"/>
<path d="M26.158 17.8047V15.3203C26.158 14.8648 26.671 14.4922 27.1346 14.4922H38.1039C38.5684 14.4922 38.8148 14.8648 38.8148 15.3203V17.8047H26.158Z" fill="#406A80"/>
<path d="M39.6565 21.1172H25.3121V21.9453H39.6565V21.1172Z" fill="#BFAF86"/>
<path d="M26.158 21.9453V19.4609C26.158 19.0055 26.671 18.6328 27.1346 18.6328H38.1039C38.5684 18.6328 38.8148 19.0055 38.8148 19.4609V21.9453H26.158Z" fill="#FFD464"/>
<path d="M36.4163 16.1484C36.4163 15.9397 36.4973 15.7514 36.6273 15.6056C36.4729 15.4321 36.2484 15.3203 35.9944 15.3203C35.5287 15.3203 35.1506 15.6913 35.1506 16.1484C35.1506 16.6056 35.5287 16.9766 35.9944 16.9766C36.2484 16.9766 36.4729 16.8644 36.6273 16.6913C36.4982 16.5455 36.4163 16.3571 36.4163 16.1484Z" fill="#E2574C"/>
<path d="M36.8382 16.1484C36.8382 15.9397 36.7576 15.7514 36.6273 15.6056C36.7821 15.4317 37.0065 15.3203 37.2601 15.3203C37.7259 15.3203 38.1039 15.6913 38.1039 16.1484C38.1039 16.6056 37.7259 16.9766 37.2601 16.9766C37.0065 16.9766 36.7821 16.8644 36.6273 16.6913C36.7576 16.5455 36.8382 16.3571 36.8382 16.1484Z" fill="#EFC75E"/>
<path d="M38.8127 19.875H26.1558V20.7031H38.8127V19.875Z" fill="#263740"/>
</svg>
